SplineFontDB: 3.2
FontName: MiscFixed10x20
FullName: Misc Fixed 10x20
FamilyName: Misc Fixed 10x20
Weight: Book
Copyright: Public domain font.  Share and enjoy.
UComments: "2021-2-2: Created with FontForge (http://fontforge.org)"
Version: 001.000
ItalicAngle: 0
UnderlinePosition: -100
UnderlineWidth: 50
Ascent: 800
Descent: 200
InvalidEm: 0
LayerCount: 2
Layer: 0 0 "Back" 1
Layer: 1 0 "Fore" 0
XUID: [1021 557 -888697226 1644755]
StyleMap: 0x0040
FSType: 0
OS2Version: 0
OS2_WeightWidthSlopeOnly: 0
OS2_UseTypoMetrics: 1
CreationTime: 1612246696
ModificationTime: 1612246697
PfmFamily: 48
TTFWeight: 400
TTFWidth: 5
LineGap: 90
VLineGap: 90
Panose: 2 0 6 9 0 0 0 0 0 0
OS2TypoAscent: 0
OS2TypoAOffset: 1
OS2TypoDescent: 0
OS2TypoDOffset: 1
OS2TypoLinegap: 90
OS2WinAscent: 0
OS2WinAOffset: 1
OS2WinDescent: 0
OS2WinDOffset: 1
HheadAscent: 0
HheadAOffset: 1
HheadDescent: 0
HheadDOffset: 1
OS2SubXSize: 650
OS2SubYSize: 700
OS2SubXOff: 0
OS2SubYOff: 140
OS2SupXSize: 650
OS2SupYSize: 700
OS2SupXOff: 0
OS2SupYOff: 480
OS2StrikeYSize: 49
OS2StrikeYPos: 258
OS2Vendor: 'PfEd'
DEI: 91125
Encoding: UnicodeBmp
UnicodeInterp: none
NameList: AGL For New Fonts
DisplaySize: 20
AntiAlias: 1
FitToEm: 0
BeginChars: 65536 5205

StartChar: exclam
Encoding: 33 33 2
Width: 500
Flags: HW
LayerCount: 2
Back
Fore
SplineSet
200 600 m 1
 300 600 l 1
 300 650 l 1
 200 650 l 1
 200 600 l 1025
200 550 m 1
 300 550 l 1
 300 600 l 1
 200 600 l 1
 200 550 l 1025
200 500 m 1
 300 500 l 1
 300 550 l 1
 200 550 l 1
 200 500 l 1025
200 450 m 1
 300 450 l 1
 300 500 l 1
 200 500 l 1
 200 450 l 1025
200 400 m 1
 300 400 l 1
 300 450 l 1
 200 450 l 1
 200 400 l 1025
200 350 m 1
 300 350 l 1
 300 400 l 1
 200 400 l 1
 200 350 l 1025
200 300 m 1
 300 300 l 1
 300 350 l 1
 200 350 l 1
 200 300 l 1025
200 250 m 1
 300 250 l 1
 300 300 l 1
 200 300 l 1
 200 250 l 1025
200 200 m 1
 300 200 l 1
 300 250 l 1
 200 250 l 1
 200 200 l 1025
200 150 m 1
 300 150 l 1
 300 200 l 1
 200 200 l 1
 200 150 l 1025
200 50 m 1
 300 50 l 1
 300 100 l 1
 200 100 l 1
 200 50 l 1025
200 0 m 1
 200 50 l 1
 300 50 l 1
 300 0 l 1
 200 0 l 1
EndSplineSet
EndChar

StartChar: quotedbl
Encoding: 34 34 3
Width: 500
Flags: HW
LayerCount: 2
Back
Fore
SplineSet
100 600 m 1
 200 600 l 1
 200 650 l 1
 100 650 l 1
 100 600 l 1025
300 600 m 1
 400 600 l 1
 400 650 l 1
 300 650 l 1
 300 600 l 1025
100 550 m 1
 200 550 l 1
 200 600 l 1
 100 600 l 1
 100 550 l 1025
300 550 m 1
 400 550 l 1
 400 600 l 1
 300 600 l 1
 300 550 l 1025
100 500 m 1
 200 500 l 1
 200 550 l 1
 100 550 l 1
 100 500 l 1025
300 500 m 1
 400 500 l 1
 400 550 l 1
 300 550 l 1
 300 500 l 1025
150 450 m 1
 200 450 l 1
 200 500 l 1
 150 500 l 1
 150 450 l 1025
300 450 m 1
 300 500 l 1
 350 500 l 1
 350 450 l 1
 300 450 l 1
EndSplineSet
EndChar

StartChar: numbersign
Encoding: 35 35 4
Width: 500
Flags: HW
LayerCount: 2
Back
Fore
SplineSet
200 550 m 1
 300 550 l 1
 300 600 l 1
 200 600 l 1
 200 550 l 1025
350 550 m 1
 450 550 l 1
 450 600 l 1
 350 600 l 1
 350 550 l 1025
200 500 m 1
 300 500 l 1
 300 550 l 1
 200 550 l 1
 200 500 l 1025
350 500 m 1
 450 500 l 1
 450 550 l 1
 350 550 l 1
 350 500 l 1025
200 450 m 1
 300 450 l 1
 300 500 l 1
 200 500 l 1
 200 450 l 1025
350 450 m 1
 450 450 l 1
 450 500 l 1
 350 500 l 1
 350 450 l 1025
100 400 m 1
 500 400 l 1
 500 450 l 1
 100 450 l 1
 100 400 l 1025
150 350 m 1
 250 350 l 1
 250 400 l 1
 150 400 l 1
 150 350 l 1025
300 350 m 1
 400 350 l 1
 400 400 l 1
 300 400 l 1
 300 350 l 1025
150 300 m 1
 250 300 l 1
 250 350 l 1
 150 350 l 1
 150 300 l 1025
300 300 m 1
 400 300 l 1
 400 350 l 1
 300 350 l 1
 300 300 l 1025
150 250 m 1
 250 250 l 1
 250 300 l 1
 150 300 l 1
 150 250 l 1025
300 250 m 1
 400 250 l 1
 400 300 l 1
 300 300 l 1
 300 250 l 1025
50 200 m 1
 450 200 l 1
 450 250 l 1
 50 250 l 1
 50 200 l 1025
100 150 m 1
 200 150 l 1
 200 200 l 1
 100 200 l 1
 100 150 l 1025
250 150 m 1
 350 150 l 1
 350 200 l 1
 250 200 l 1
 250 150 l 1025
100 100 m 1
 200 100 l 1
 200 150 l 1
 100 150 l 1
 100 100 l 1025
250 100 m 1
 350 100 l 1
 350 150 l 1
 250 150 l 1
 250 100 l 1025
100 50 m 1
 200 50 l 1
 200 100 l 1
 100 100 l 1
 100 50 l 1025
250 50 m 1
 250 100 l 1
 350 100 l 1
 350 50 l 1
 250 50 l 1
EndSplineSet
EndChar

StartChar: dollar
Encoding: 36 36 5
Width: 500
Flags: HW
LayerCount: 2
Back
Fore
SplineSet
200 600 m 1
 300 600 l 1
 300 650 l 1
 200 650 l 1
 200 600 l 1025
100 550 m 1
 400 550 l 1
 400 600 l 1
 100 600 l 1
 100 550 l 1025
50 500 m 1
 150 500 l 1
 150 550 l 1
 50 550 l 1
 50 500 l 1025
200 500 m 1
 300 500 l 1
 300 550 l 1
 200 550 l 1
 200 500 l 1025
350 500 m 1
 450 500 l 1
 450 550 l 1
 350 550 l 1
 350 500 l 1025
50 450 m 1
 150 450 l 1
 150 500 l 1
 50 500 l 1
 50 450 l 1025
200 450 m 1
 300 450 l 1
 300 500 l 1
 200 500 l 1
 200 450 l 1025
50 400 m 1
 150 400 l 1
 150 450 l 1
 50 450 l 1
 50 400 l 1025
200 400 m 1
 300 400 l 1
 300 450 l 1
 200 450 l 1
 200 400 l 1025
50 350 m 1
 150 350 l 1
 150 400 l 1
 50 400 l 1
 50 350 l 1025
200 350 m 1
 300 350 l 1
 300 400 l 1
 200 400 l 1
 200 350 l 1025
100 300 m 1
 400 300 l 1
 400 350 l 1
 100 350 l 1
 100 300 l 1025
200 250 m 1
 300 250 l 1
 300 300 l 1
 200 300 l 1
 200 250 l 1025
350 250 m 1
 450 250 l 1
 450 300 l 1
 350 300 l 1
 350 250 l 1025
200 200 m 1
 300 200 l 1
 300 250 l 1
 200 250 l 1
 200 200 l 1025
350 200 m 1
 450 200 l 1
 450 250 l 1
 350 250 l 1
 350 200 l 1025
200 150 m 1
 300 150 l 1
 300 200 l 1
 200 200 l 1
 200 150 l 1025
350 150 m 1
 450 150 l 1
 450 200 l 1
 350 200 l 1
 350 150 l 1025
50 100 m 1
 150 100 l 1
 150 150 l 1
 50 150 l 1
 50 100 l 1025
200 100 m 1
 300 100 l 1
 300 150 l 1
 200 150 l 1
 200 100 l 1025
350 100 m 1
 450 100 l 1
 450 150 l 1
 350 150 l 1
 350 100 l 1025
100 50 m 1
 400 50 l 1
 400 100 l 1
 100 100 l 1
 100 50 l 1025
200 0 m 1
 200 50 l 1
 300 50 l 1
 300 0 l 1
 200 0 l 1
EndSplineSet
EndChar

StartChar: percent
Encoding: 37 37 6
Width: 500
Flags: HW
LayerCount: 2
Back
Fore
SplineSet
100 550 m 1
 250 550 l 1
 250 600 l 1
 100 600 l 1
 100 550 l 1025
350 550 m 1
 450 550 l 1
 450 600 l 1
 350 600 l 1
 350 550 l 1025
50 500 m 1
 150 500 l 1
 150 550 l 1
 50 550 l 1
 50 500 l 1025
200 500 m 1
 300 500 l 1
 300 550 l 1
 200 550 l 1
 200 500 l 1025
350 500 m 1
 450 500 l 1
 450 550 l 1
 350 550 l 1
 350 500 l 1025
50 450 m 1
 150 450 l 1
 150 500 l 1
 50 500 l 1
 50 450 l 1025
200 450 m 1
 400 450 l 1
 400 500 l 1
 200 500 l 1
 200 450 l 1025
100 400 m 1
 250 400 l 1
 250 450 l 1
 100 450 l 1
 100 400 l 1025
300 400 m 1
 400 400 l 1
 400 450 l 1
 300 450 l 1
 300 400 l 1025
250 350 m 1
 350 350 l 1
 350 400 l 1
 250 400 l 1
 250 350 l 1025
250 300 m 1
 350 300 l 1
 350 350 l 1
 250 350 l 1
 250 300 l 1025
200 250 m 1
 300 250 l 1
 300 300 l 1
 200 300 l 1
 200 250 l 1025
200 200 m 1
 300 200 l 1
 300 250 l 1
 200 250 l 1
 200 200 l 1025
150 150 m 1
 250 150 l 1
 250 200 l 1
 150 200 l 1
 150 150 l 1025
300 150 m 1
 450 150 l 1
 450 200 l 1
 300 200 l 1
 300 150 l 1025
150 100 m 1
 350 100 l 1
 350 150 l 1
 150 150 l 1
 150 100 l 1025
400 100 m 1
 500 100 l 1
 500 150 l 1
 400 150 l 1
 400 100 l 1025
100 50 m 1
 200 50 l 1
 200 100 l 1
 100 100 l 1
 100 50 l 1025
250 50 m 1
 350 50 l 1
 350 100 l 1
 250 100 l 1
 250 50 l 1025
400 50 m 1
 500 50 l 1
 500 100 l 1
 400 100 l 1
 400 50 l 1025
100 0 m 1
 200 0 l 1
 200 50 l 1
 100 50 l 1
 100 0 l 1025
300 0 m 1
 300 50 l 1
 450 50 l 1
 450 0 l 1
 300 0 l 1
EndSplineSet
EndChar

StartChar: ampersand
Encoding: 38 38 7
Width: 500
Flags: HW
LayerCount: 2
Back
Fore
SplineSet
150 600 m 1
 300 600 l 1
 300 650 l 1
 150 650 l 1
 150 600 l 1025
100 550 m 1
 200 550 l 1
 200 600 l 1
 100 600 l 1
 100 550 l 1025
250 550 m 1
 350 550 l 1
 350 600 l 1
 250 600 l 1
 250 550 l 1025
100 500 m 1
 200 500 l 1
 200 550 l 1
 100 550 l 1
 100 500 l 1025
250 500 m 1
 350 500 l 1
 350 550 l 1
 250 550 l 1
 250 500 l 1025
100 450 m 1
 200 450 l 1
 200 500 l 1
 100 500 l 1
 100 450 l 1025
250 450 m 1
 350 450 l 1
 350 500 l 1
 250 500 l 1
 250 450 l 1025
100 400 m 1
 300 400 l 1
 300 450 l 1
 100 450 l 1
 100 400 l 1025
150 350 m 1
 250 350 l 1
 250 400 l 1
 150 400 l 1
 150 350 l 1025
100 300 m 1
 250 300 l 1
 250 350 l 1
 100 350 l 1
 100 300 l 1025
50 250 m 1
 150 250 l 1
 150 300 l 1
 50 300 l 1
 50 250 l 1025
200 250 m 1
 300 250 l 1
 300 300 l 1
 200 300 l 1
 200 250 l 1025
50 200 m 1
 150 200 l 1
 150 250 l 1
 50 250 l 1
 50 200 l 1025
250 200 m 1
 350 200 l 1
 350 250 l 1
 250 250 l 1
 250 200 l 1025
400 200 m 1
 500 200 l 1
 500 250 l 1
 400 250 l 1
 400 200 l 1025
50 150 m 1
 150 150 l 1
 150 200 l 1
 50 200 l 1
 50 150 l 1025
300 150 m 1
 450 150 l 1
 450 200 l 1
 300 200 l 1
 300 150 l 1025
50 100 m 1
 150 100 l 1
 150 150 l 1
 50 150 l 1
 50 100 l 1025
300 100 m 1
 400 100 l 1
 400 150 l 1
 300 150 l 1
 300 100 l 1025
50 50 m 1
 200 50 l 1
 200 100 l 1
 50 100 l 1
 50 50 l 1025
250 50 m 1
 450 50 l 1
 450 100 l 1
 250 100 l 1
 250 50 l 1025
100 0 m 1
 300 0 l 1
 300 50 l 1
 100 50 l 1
 100 0 l 1025
400 0 m 1
 400 50 l 1
 500 50 l 1
 500 0 l 1
 400 0 l 1
EndSplineSet
EndChar

StartChar: quotesingle
Encoding: 39 39 8
Width: 500
Flags: HW
LayerCount: 2
Back
Fore
SplineSet
200 600 m 1
 300 600 l 1
 300 650 l 1
 200 650 l 1
 200 600 l 1025
200 550 m 1
 300 550 l 1
 300 600 l 1
 200 600 l 1
 200 550 l 1025
200 500 m 1
 300 500 l 1
 300 550 l 1
 200 550 l 1
 200 500 l 1025
200 450 m 1
 300 450 l 1
 300 500 l 1
 200 500 l 1
 200 450 l 1025
200 400 m 1
 200 450 l 1
 250 450 l 1
 250 400 l 1
 200 400 l 1
EndSplineSet
EndChar

StartChar: parenleft
Encoding: 40 40 9
Width: 500
Flags: HW
LayerCount: 2
Back
Fore
SplineSet
300 600 m 1
 400 600 l 1
 400 650 l 1
 300 650 l 1
 300 600 l 1025
250 550 m 1
 350 550 l 1
 350 600 l 1
 250 600 l 1
 250 550 l 1025
200 500 m 1
 300 500 l 1
 300 550 l 1
 200 550 l 1
 200 500 l 1025
200 450 m 1
 300 450 l 1
 300 500 l 1
 200 500 l 1
 200 450 l 1025
150 400 m 1
 250 400 l 1
 250 450 l 1
 150 450 l 1
 150 400 l 1025
150 350 m 1
 250 350 l 1
 250 400 l 1
 150 400 l 1
 150 350 l 1025
150 300 m 1
 250 300 l 1
 250 350 l 1
 150 350 l 1
 150 300 l 1025
150 250 m 1
 250 250 l 1
 250 300 l 1
 150 300 l 1
 150 250 l 1025
150 200 m 1
 250 200 l 1
 250 250 l 1
 150 250 l 1
 150 200 l 1025
200 150 m 1
 300 150 l 1
 300 200 l 1
 200 200 l 1
 200 150 l 1025
200 100 m 1
 300 100 l 1
 300 150 l 1
 200 150 l 1
 200 100 l 1025
250 50 m 1
 350 50 l 1
 350 100 l 1
 250 100 l 1
 250 50 l 1025
300 0 m 1
 300 50 l 1
 400 50 l 1
 400 0 l 1
 300 0 l 1
EndSplineSet
EndChar

StartChar: parenright
Encoding: 41 41 10
Width: 500
Flags: HW
LayerCount: 2
Back
Fore
SplineSet
100 600 m 1
 200 600 l 1
 200 650 l 1
 100 650 l 1
 100 600 l 1025
150 550 m 1
 250 550 l 1
 250 600 l 1
 150 600 l 1
 150 550 l 1025
200 500 m 1
 300 500 l 1
 300 550 l 1
 200 550 l 1
 200 500 l 1025
200 450 m 1
 300 450 l 1
 300 500 l 1
 200 500 l 1
 200 450 l 1025
250 400 m 1
 350 400 l 1
 350 450 l 1
 250 450 l 1
 250 400 l 1025
250 350 m 1
 350 350 l 1
 350 400 l 1
 250 400 l 1
 250 350 l 1025
250 300 m 1
 350 300 l 1
 350 350 l 1
 250 350 l 1
 250 300 l 1025
250 250 m 1
 350 250 l 1
 350 300 l 1
 250 300 l 1
 250 250 l 1025
250 200 m 1
 350 200 l 1
 350 250 l 1
 250 250 l 1
 250 200 l 1025
200 150 m 1
 300 150 l 1
 300 200 l 1
 200 200 l 1
 200 150 l 1025
200 100 m 1
 300 100 l 1
 300 150 l 1
 200 150 l 1
 200 100 l 1025
150 50 m 1
 250 50 l 1
 250 100 l 1
 150 100 l 1
 150 50 l 1025
100 0 m 1
 100 50 l 1
 200 50 l 1
 200 0 l 1
 100 0 l 1
EndSplineSet
EndChar

StartChar: asterisk
Encoding: 42 42 11
Width: 500
Flags: HW
LayerCount: 2
Back
Fore
SplineSet
100 450 m 1
 200 450 l 1
 200 500 l 1
 100 500 l 1
 100 450 l 1025
300 450 m 1
 400 450 l 1
 400 500 l 1
 300 500 l 1
 300 450 l 1025
100 400 m 1
 200 400 l 1
 200 450 l 1
 100 450 l 1
 100 400 l 1025
300 400 m 1
 400 400 l 1
 400 450 l 1
 300 450 l 1
 300 400 l 1025
150 350 m 1
 350 350 l 1
 350 400 l 1
 150 400 l 1
 150 350 l 1025
50 300 m 1
 450 300 l 1
 450 350 l 1
 50 350 l 1
 50 300 l 1025
150 250 m 1
 350 250 l 1
 350 300 l 1
 150 300 l 1
 150 250 l 1025
100 200 m 1
 200 200 l 1
 200 250 l 1
 100 250 l 1
 100 200 l 1025
300 200 m 1
 400 200 l 1
 400 250 l 1
 300 250 l 1
 300 200 l 1025
100 150 m 1
 200 150 l 1
 200 200 l 1
 100 200 l 1
 100 150 l 1025
300 150 m 1
 300 200 l 1
 400 200 l 1
 400 150 l 1
 300 150 l 1
EndSplineSet
EndChar

StartChar: plus
Encoding: 43 43 12
Width: 500
Flags: HW
LayerCount: 2
Back
Fore
SplineSet
200 450 m 1
 300 450 l 1
 300 500 l 1
 200 500 l 1
 200 450 l 1025
200 400 m 1
 300 400 l 1
 300 450 l 1
 200 450 l 1
 200 400 l 1025
200 350 m 1
 300 350 l 1
 300 400 l 1
 200 400 l 1
 200 350 l 1025
50 300 m 1
 450 300 l 1
 450 350 l 1
 50 350 l 1
 50 300 l 1025
200 250 m 1
 300 250 l 1
 300 300 l 1
 200 300 l 1
 200 250 l 1025
200 200 m 1
 300 200 l 1
 300 250 l 1
 200 250 l 1
 200 200 l 1025
200 150 m 1
 200 200 l 1
 300 200 l 1
 300 150 l 1
 200 150 l 1
EndSplineSet
EndChar

StartChar: comma
Encoding: 44 44 13
Width: 500
Flags: HW
LayerCount: 2
Back
Fore
SplineSet
200 50 m 1
 350 50 l 1
 350 100 l 1
 200 100 l 1
 200 50 l 1025
200 0 m 1
 350 0 l 1
 350 50 l 1
 200 50 l 1
 200 0 l 1025
150 -50 m 1
 150 0 l 1
 300 0 l 1
 300 -50 l 1
 150 -50 l 1
EndSplineSet
EndChar

StartChar: period
Encoding: 46 46 15
Width: 500
Flags: HW
LayerCount: 2
Back
Fore
SplineSet
200 100 m 1
 350 100 l 1
 350 150 l 1
 200 150 l 1
 200 100 l 1025
200 50 m 1
 350 50 l 1
 350 100 l 1
 200 100 l 1
 200 50 l 1025
200 0 m 1
 200 50 l 1
 350 50 l 1
 350 0 l 1
 200 0 l 1
EndSplineSet
EndChar

StartChar: slash
Encoding: 47 47 16
Width: 500
Flags: HW
LayerCount: 2
Back
Fore
SplineSet
350 550 m 1
 450 550 l 1
 450 600 l 1
 350 600 l 1
 350 550 l 1025
350 500 m 1
 450 500 l 1
 450 550 l 1
 350 550 l 1
 350 500 l 1025
300 450 m 1
 400 450 l 1
 400 500 l 1
 300 500 l 1
 300 450 l 1025
300 400 m 1
 400 400 l 1
 400 450 l 1
 300 450 l 1
 300 400 l 1025
250 350 m 1
 350 350 l 1
 350 400 l 1
 250 400 l 1
 250 350 l 1025
250 300 m 1
 350 300 l 1
 350 350 l 1
 250 350 l 1
 250 300 l 1025
200 250 m 1
 300 250 l 1
 300 300 l 1
 200 300 l 1
 200 250 l 1025
200 200 m 1
 300 200 l 1
 300 250 l 1
 200 250 l 1
 200 200 l 1025
150 150 m 1
 250 150 l 1
 250 200 l 1
 150 200 l 1
 150 150 l 1025
150 100 m 1
 250 100 l 1
 250 150 l 1
 150 150 l 1
 150 100 l 1025
100 50 m 1
 200 50 l 1
 200 100 l 1
 100 100 l 1
 100 50 l 1025
100 0 m 1
 100 50 l 1
 200 50 l 1
 200 0 l 1
 100 0 l 1
EndSplineSet
EndChar

StartChar: zero
Encoding: 48 48 17
Width: 500
Flags: HW
LayerCount: 2
Back
Fore
SplineSet
200 600 m 1
 300 600 l 1
 300 650 l 1
 200 650 l 1
 200 600 l 1025
150 550 m 1
 350 550 l 1
 350 600 l 1
 150 600 l 1
 150 550 l 1025
100 500 m 1
 200 500 l 1
 200 550 l 1
 100 550 l 1
 100 500 l 1025
300 500 m 1
 400 500 l 1
 400 550 l 1
 300 550 l 1
 300 500 l 1025
100 450 m 1
 200 450 l 1
 200 500 l 1
 100 500 l 1
 100 450 l 1025
300 450 m 1
 400 450 l 1
 400 500 l 1
 300 500 l 1
 300 450 l 1025
50 400 m 1
 150 400 l 1
 150 450 l 1
 50 450 l 1
 50 400 l 1025
350 400 m 1
 450 400 l 1
 450 450 l 1
 350 450 l 1
 350 400 l 1025
50 350 m 1
 150 350 l 1
 150 400 l 1
 50 400 l 1
 50 350 l 1025
350 350 m 1
 450 350 l 1
 450 400 l 1
 350 400 l 1
 350 350 l 1025
50 300 m 1
 150 300 l 1
 150 350 l 1
 50 350 l 1
 50 300 l 1025
350 300 m 1
 450 300 l 1
 450 350 l 1
 350 350 l 1
 350 300 l 1025
50 250 m 1
 150 250 l 1
 150 300 l 1
 50 300 l 1
 50 250 l 1025
350 250 m 1
 450 250 l 1
 450 300 l 1
 350 300 l 1
 350 250 l 1025
50 200 m 1
 150 200 l 1
 150 250 l 1
 50 250 l 1
 50 200 l 1025
350 200 m 1
 450 200 l 1
 450 250 l 1
 350 250 l 1
 350 200 l 1025
100 150 m 1
 200 150 l 1
 200 200 l 1
 100 200 l 1
 100 150 l 1025
300 150 m 1
 400 150 l 1
 400 200 l 1
 300 200 l 1
 300 150 l 1025
100 100 m 1
 200 100 l 1
 200 150 l 1
 100 150 l 1
 100 100 l 1025
300 100 m 1
 400 100 l 1
 400 150 l 1
 300 150 l 1
 300 100 l 1025
150 50 m 1
 350 50 l 1
 350 100 l 1
 150 100 l 1
 150 50 l 1025
200 0 m 1
 200 50 l 1
 300 50 l 1
 300 0 l 1
 200 0 l 1
EndSplineSet
EndChar

StartChar: one
Encoding: 49 49 18
Width: 500
Flags: HW
LayerCount: 2
Back
Fore
SplineSet
200 600 m 1
 300 600 l 1
 300 650 l 1
 200 650 l 1
 200 600 l 1025
150 550 m 1
 300 550 l 1
 300 600 l 1
 150 600 l 1
 150 550 l 1025
100 500 m 1
 300 500 l 1
 300 550 l 1
 100 550 l 1
 100 500 l 1025
50 450 m 1
 150 450 l 1
 150 500 l 1
 50 500 l 1
 50 450 l 1025
200 450 m 1
 300 450 l 1
 300 500 l 1
 200 500 l 1
 200 450 l 1025
200 400 m 1
 300 400 l 1
 300 450 l 1
 200 450 l 1
 200 400 l 1025
200 350 m 1
 300 350 l 1
 300 400 l 1
 200 400 l 1
 200 350 l 1025
200 300 m 1
 300 300 l 1
 300 350 l 1
 200 350 l 1
 200 300 l 1025
200 250 m 1
 300 250 l 1
 300 300 l 1
 200 300 l 1
 200 250 l 1025
200 200 m 1
 300 200 l 1
 300 250 l 1
 200 250 l 1
 200 200 l 1025
200 150 m 1
 300 150 l 1
 300 200 l 1
 200 200 l 1
 200 150 l 1025
200 100 m 1
 300 100 l 1
 300 150 l 1
 200 150 l 1
 200 100 l 1025
200 50 m 1
 300 50 l 1
 300 100 l 1
 200 100 l 1
 200 50 l 1025
50 0 m 1
 50 50 l 1
 450 50 l 1
 450 0 l 1
 50 0 l 1
EndSplineSet
EndChar

StartChar: two
Encoding: 50 50 19
Width: 500
Flags: HW
LayerCount: 2
Back
Fore
SplineSet
150 600 m 1
 350 600 l 1
 350 650 l 1
 150 650 l 1
 150 600 l 1025
100 550 m 1
 200 550 l 1
 200 600 l 1
 100 600 l 1
 100 550 l 1025
300 550 m 1
 400 550 l 1
 400 600 l 1
 300 600 l 1
 300 550 l 1025
50 500 m 1
 150 500 l 1
 150 550 l 1
 50 550 l 1
 50 500 l 1025
350 500 m 1
 450 500 l 1
 450 550 l 1
 350 550 l 1
 350 500 l 1025
50 450 m 1
 150 450 l 1
 150 500 l 1
 50 500 l 1
 50 450 l 1025
350 450 m 1
 450 450 l 1
 450 500 l 1
 350 500 l 1
 350 450 l 1025
350 400 m 1
 450 400 l 1
 450 450 l 1
 350 450 l 1
 350 400 l 1025
350 350 m 1
 450 350 l 1
 450 400 l 1
 350 400 l 1
 350 350 l 1025
300 300 m 1
 400 300 l 1
 400 350 l 1
 300 350 l 1
 300 300 l 1025
200 250 m 1
 350 250 l 1
 350 300 l 1
 200 300 l 1
 200 250 l 1025
150 200 m 1
 250 200 l 1
 250 250 l 1
 150 250 l 1
 150 200 l 1025
100 150 m 1
 200 150 l 1
 200 200 l 1
 100 200 l 1
 100 150 l 1025
50 100 m 1
 150 100 l 1
 150 150 l 1
 50 150 l 1
 50 100 l 1025
50 50 m 1
 150 50 l 1
 150 100 l 1
 50 100 l 1
 50 50 l 1025
50 0 m 1
 50 50 l 1
 450 50 l 1
 450 0 l 1
 50 0 l 1
EndSplineSet
EndChar

StartChar: three
Encoding: 51 51 20
Width: 500
Flags: HW
LayerCount: 2
Back
Fore
SplineSet
150 600 m 1
 350 600 l 1
 350 650 l 1
 150 650 l 1
 150 600 l 1025
100 550 m 1
 200 550 l 1
 200 600 l 1
 100 600 l 1
 100 550 l 1025
300 550 m 1
 400 550 l 1
 400 600 l 1
 300 600 l 1
 300 550 l 1025
50 500 m 1
 150 500 l 1
 150 550 l 1
 50 550 l 1
 50 500 l 1025
350 500 m 1
 450 500 l 1
 450 550 l 1
 350 550 l 1
 350 500 l 1025
50 450 m 1
 150 450 l 1
 150 500 l 1
 50 500 l 1
 50 450 l 1025
350 450 m 1
 450 450 l 1
 450 500 l 1
 350 500 l 1
 350 450 l 1025
350 400 m 1
 450 400 l 1
 450 450 l 1
 350 450 l 1
 350 400 l 1025
300 350 m 1
 400 350 l 1
 400 400 l 1
 300 400 l 1
 300 350 l 1025
200 300 m 1
 350 300 l 1
 350 350 l 1
 200 350 l 1
 200 300 l 1025
300 250 m 1
 400 250 l 1
 400 300 l 1
 300 300 l 1
 300 250 l 1025
350 200 m 1
 450 200 l 1
 450 250 l 1
 350 250 l 1
 350 200 l 1025
50 150 m 1
 150 150 l 1
 150 200 l 1
 50 200 l 1
 50 150 l 1025
350 150 m 1
 450 150 l 1
 450 200 l 1
 350 200 l 1
 350 150 l 1025
50 100 m 1
 150 100 l 1
 150 150 l 1
 50 150 l 1
 50 100 l 1025
350 100 m 1
 450 100 l 1
 450 150 l 1
 350 150 l 1
 350 100 l 1025
100 50 m 1
 200 50 l 1
 200 100 l 1
 100 100 l 1
 100 50 l 1025
300 50 m 1
 400 50 l 1
 400 100 l 1
 300 100 l 1
 300 50 l 1025
150 0 m 1
 150 50 l 1
 350 50 l 1
 350 0 l 1
 150 0 l 1
EndSplineSet
EndChar

StartChar: four
Encoding: 52 52 21
Width: 500
Flags: HW
LayerCount: 2
Back
Fore
SplineSet
350 600 m 1
 400 600 l 1
 400 650 l 1
 350 650 l 1
 350 600 l 1025
300 550 m 1
 400 550 l 1
 400 600 l 1
 300 600 l 1
 300 550 l 1025
250 500 m 1
 400 500 l 1
 400 550 l 1
 250 550 l 1
 250 500 l 1025
200 450 m 1
 400 450 l 1
 400 500 l 1
 200 500 l 1
 200 450 l 1025
150 400 m 1
 250 400 l 1
 250 450 l 1
 150 450 l 1
 150 400 l 1025
300 400 m 1
 400 400 l 1
 400 450 l 1
 300 450 l 1
 300 400 l 1025
100 350 m 1
 200 350 l 1
 200 400 l 1
 100 400 l 1
 100 350 l 1025
300 350 m 1
 400 350 l 1
 400 400 l 1
 300 400 l 1
 300 350 l 1025
50 300 m 1
 150 300 l 1
 150 350 l 1
 50 350 l 1
 50 300 l 1025
300 300 m 1
 400 300 l 1
 400 350 l 1
 300 350 l 1
 300 300 l 1025
50 250 m 1
 150 250 l 1
 150 300 l 1
 50 300 l 1
 50 250 l 1025
300 250 m 1
 400 250 l 1
 400 300 l 1
 300 300 l 1
 300 250 l 1025
50 200 m 1
 450 200 l 1
 450 250 l 1
 50 250 l 1
 50 200 l 1025
300 150 m 1
 400 150 l 1
 400 200 l 1
 300 200 l 1
 300 150 l 1025
300 100 m 1
 400 100 l 1
 400 150 l 1
 300 150 l 1
 300 100 l 1025
300 50 m 1
 400 50 l 1
 400 100 l 1
 300 100 l 1
 300 50 l 1025
300 0 m 1
 300 50 l 1
 400 50 l 1
 400 0 l 1
 300 0 l 1
EndSplineSet
EndChar

StartChar: five
Encoding: 53 53 22
Width: 500
Flags: HW
LayerCount: 2
Back
Fore
SplineSet
50 600 m 1
 450 600 l 1
 450 650 l 1
 50 650 l 1
 50 600 l 1025
50 550 m 1
 150 550 l 1
 150 600 l 1
 50 600 l 1
 50 550 l 1025
50 500 m 1
 150 500 l 1
 150 550 l 1
 50 550 l 1
 50 500 l 1025
50 450 m 1
 150 450 l 1
 150 500 l 1
 50 500 l 1
 50 450 l 1025
50 400 m 1
 150 400 l 1
 150 450 l 1
 50 450 l 1
 50 400 l 1025
50 350 m 1
 150 350 l 1
 150 400 l 1
 50 400 l 1
 50 350 l 1025
200 350 m 1
 350 350 l 1
 350 400 l 1
 200 400 l 1
 200 350 l 1025
50 300 m 1
 200 300 l 1
 200 350 l 1
 50 350 l 1
 50 300 l 1025
300 300 m 1
 400 300 l 1
 400 350 l 1
 300 350 l 1
 300 300 l 1025
350 250 m 1
 450 250 l 1
 450 300 l 1
 350 300 l 1
 350 250 l 1025
350 200 m 1
 450 200 l 1
 450 250 l 1
 350 250 l 1
 350 200 l 1025
350 150 m 1
 450 150 l 1
 450 200 l 1
 350 200 l 1
 350 150 l 1025
50 100 m 1
 150 100 l 1
 150 150 l 1
 50 150 l 1
 50 100 l 1025
350 100 m 1
 450 100 l 1
 450 150 l 1
 350 150 l 1
 350 100 l 1025
100 50 m 1
 200 50 l 1
 200 100 l 1
 100 100 l 1
 100 50 l 1025
300 50 m 1
 400 50 l 1
 400 100 l 1
 300 100 l 1
 300 50 l 1025
150 0 m 1
 150 50 l 1
 350 50 l 1
 350 0 l 1
 150 0 l 1
EndSplineSet
EndChar

StartChar: six
Encoding: 54 54 23
Width: 500
Flags: HW
LayerCount: 2
Back
Fore
SplineSet
150 600 m 1
 350 600 l 1
 350 650 l 1
 150 650 l 1
 150 600 l 1025
100 550 m 1
 200 550 l 1
 200 600 l 1
 100 600 l 1
 100 550 l 1025
300 550 m 1
 400 550 l 1
 400 600 l 1
 300 600 l 1
 300 550 l 1025
50 500 m 1
 150 500 l 1
 150 550 l 1
 50 550 l 1
 50 500 l 1025
350 500 m 1
 400 500 l 1
 400 550 l 1
 350 550 l 1
 350 500 l 1025
50 450 m 1
 150 450 l 1
 150 500 l 1
 50 500 l 1
 50 450 l 1025
50 400 m 1
 150 400 l 1
 150 450 l 1
 50 450 l 1
 50 400 l 1025
50 350 m 1
 150 350 l 1
 150 400 l 1
 50 400 l 1
 50 350 l 1025
200 350 m 1
 350 350 l 1
 350 400 l 1
 200 400 l 1
 200 350 l 1025
50 300 m 1
 200 300 l 1
 200 350 l 1
 50 350 l 1
 50 300 l 1025
300 300 m 1
 400 300 l 1
 400 350 l 1
 300 350 l 1
 300 300 l 1025
50 250 m 1
 150 250 l 1
 150 300 l 1
 50 300 l 1
 50 250 l 1025
350 250 m 1
 450 250 l 1
 450 300 l 1
 350 300 l 1
 350 250 l 1025
50 200 m 1
 150 200 l 1
 150 250 l 1
 50 250 l 1
 50 200 l 1025
350 200 m 1
 450 200 l 1
 450 250 l 1
 350 250 l 1
 350 200 l 1025
50 150 m 1
 150 150 l 1
 150 200 l 1
 50 200 l 1
 50 150 l 1025
350 150 m 1
 450 150 l 1
 450 200 l 1
 350 200 l 1
 350 150 l 1025
50 100 m 1
 150 100 l 1
 150 150 l 1
 50 150 l 1
 50 100 l 1025
350 100 m 1
 450 100 l 1
 450 150 l 1
 350 150 l 1
 350 100 l 1025
100 50 m 1
 200 50 l 1
 200 100 l 1
 100 100 l 1
 100 50 l 1025
300 50 m 1
 400 50 l 1
 400 100 l 1
 300 100 l 1
 300 50 l 1025
150 0 m 1
 150 50 l 1
 350 50 l 1
 350 0 l 1
 150 0 l 1
EndSplineSet
EndChar

StartChar: seven
Encoding: 55 55 24
Width: 500
Flags: HW
LayerCount: 2
Back
Fore
SplineSet
50 600 m 1
 450 600 l 1
 450 650 l 1
 50 650 l 1
 50 600 l 1025
350 550 m 1
 450 550 l 1
 450 600 l 1
 350 600 l 1
 350 550 l 1025
350 500 m 1
 450 500 l 1
 450 550 l 1
 350 550 l 1
 350 500 l 1025
300 450 m 1
 400 450 l 1
 400 500 l 1
 300 500 l 1
 300 450 l 1025
300 400 m 1
 400 400 l 1
 400 450 l 1
 300 450 l 1
 300 400 l 1025
250 350 m 1
 350 350 l 1
 350 400 l 1
 250 400 l 1
 250 350 l 1025
250 300 m 1
 350 300 l 1
 350 350 l 1
 250 350 l 1
 250 300 l 1025
200 250 m 1
 300 250 l 1
 300 300 l 1
 200 300 l 1
 200 250 l 1025
200 200 m 1
 300 200 l 1
 300 250 l 1
 200 250 l 1
 200 200 l 1025
150 150 m 1
 250 150 l 1
 250 200 l 1
 150 200 l 1
 150 150 l 1025
150 100 m 1
 250 100 l 1
 250 150 l 1
 150 150 l 1
 150 100 l 1025
100 50 m 1
 200 50 l 1
 200 100 l 1
 100 100 l 1
 100 50 l 1025
100 0 m 1
 100 50 l 1
 200 50 l 1
 200 0 l 1
 100 0 l 1
EndSplineSet
EndChar

StartChar: eight
Encoding: 56 56 25
Width: 500
Flags: HW
LayerCount: 2
Back
Fore
SplineSet
150 600 m 1
 350 600 l 1
 350 650 l 1
 150 650 l 1
 150 600 l 1025
100 550 m 1
 200 550 l 1
 200 600 l 1
 100 600 l 1
 100 550 l 1025
300 550 m 1
 400 550 l 1
 400 600 l 1
 300 600 l 1
 300 550 l 1025
50 500 m 1
 150 500 l 1
 150 550 l 1
 50 550 l 1
 50 500 l 1025
350 500 m 1
 450 500 l 1
 450 550 l 1
 350 550 l 1
 350 500 l 1025
50 450 m 1
 150 450 l 1
 150 500 l 1
 50 500 l 1
 50 450 l 1025
350 450 m 1
 450 450 l 1
 450 500 l 1
 350 500 l 1
 350 450 l 1025
50 400 m 1
 150 400 l 1
 150 450 l 1
 50 450 l 1
 50 400 l 1025
350 400 m 1
 450 400 l 1
 450 450 l 1
 350 450 l 1
 350 400 l 1025
100 350 m 1
 200 350 l 1
 200 400 l 1
 100 400 l 1
 100 350 l 1025
300 350 m 1
 400 350 l 1
 400 400 l 1
 300 400 l 1
 300 350 l 1025
150 300 m 1
 350 300 l 1
 350 350 l 1
 150 350 l 1
 150 300 l 1025
100 250 m 1
 200 250 l 1
 200 300 l 1
 100 300 l 1
 100 250 l 1025
300 250 m 1
 400 250 l 1
 400 300 l 1
 300 300 l 1
 300 250 l 1025
50 200 m 1
 150 200 l 1
 150 250 l 1
 50 250 l 1
 50 200 l 1025
350 200 m 1
 450 200 l 1
 450 250 l 1
 350 250 l 1
 350 200 l 1025
50 150 m 1
 150 150 l 1
 150 200 l 1
 50 200 l 1
 50 150 l 1025
350 150 m 1
 450 150 l 1
 450 200 l 1
 350 200 l 1
 350 150 l 1025
50 100 m 1
 150 100 l 1
 150 150 l 1
 50 150 l 1
 50 100 l 1025
350 100 m 1
 450 100 l 1
 450 150 l 1
 350 150 l 1
 350 100 l 1025
100 50 m 1
 200 50 l 1
 200 100 l 1
 100 100 l 1
 100 50 l 1025
300 50 m 1
 400 50 l 1
 400 100 l 1
 300 100 l 1
 300 50 l 1025
150 0 m 1
 150 50 l 1
 350 50 l 1
 350 0 l 1
 150 0 l 1
EndSplineSet
EndChar

StartChar: nine
Encoding: 57 57 26
Width: 500
Flags: HW
LayerCount: 2
Back
Fore
SplineSet
150 600 m 1
 350 600 l 1
 350 650 l 1
 150 650 l 1
 150 600 l 1025
100 550 m 1
 200 550 l 1
 200 600 l 1
 100 600 l 1
 100 550 l 1025
300 550 m 1
 400 550 l 1
 400 600 l 1
 300 600 l 1
 300 550 l 1025
50 500 m 1
 150 500 l 1
 150 550 l 1
 50 550 l 1
 50 500 l 1025
350 500 m 1
 450 500 l 1
 450 550 l 1
 350 550 l 1
 350 500 l 1025
50 450 m 1
 150 450 l 1
 150 500 l 1
 50 500 l 1
 50 450 l 1025
350 450 m 1
 450 450 l 1
 450 500 l 1
 350 500 l 1
 350 450 l 1025
50 400 m 1
 150 400 l 1
 150 450 l 1
 50 450 l 1
 50 400 l 1025
350 400 m 1
 450 400 l 1
 450 450 l 1
 350 450 l 1
 350 400 l 1025
50 350 m 1
 150 350 l 1
 150 400 l 1
 50 400 l 1
 50 350 l 1025
350 350 m 1
 450 350 l 1
 450 400 l 1
 350 400 l 1
 350 350 l 1025
100 300 m 1
 200 300 l 1
 200 350 l 1
 100 350 l 1
 100 300 l 1025
300 300 m 1
 450 300 l 1
 450 350 l 1
 300 350 l 1
 300 300 l 1025
150 250 m 1
 300 250 l 1
 300 300 l 1
 150 300 l 1
 150 250 l 1025
350 250 m 1
 450 250 l 1
 450 300 l 1
 350 300 l 1
 350 250 l 1025
350 200 m 1
 450 200 l 1
 450 250 l 1
 350 250 l 1
 350 200 l 1025
350 150 m 1
 450 150 l 1
 450 200 l 1
 350 200 l 1
 350 150 l 1025
100 100 m 1
 150 100 l 1
 150 150 l 1
 100 150 l 1
 100 100 l 1025
350 100 m 1
 450 100 l 1
 450 150 l 1
 350 150 l 1
 350 100 l 1025
100 50 m 1
 200 50 l 1
 200 100 l 1
 100 100 l 1
 100 50 l 1025
300 50 m 1
 400 50 l 1
 400 100 l 1
 300 100 l 1
 300 50 l 1025
150 0 m 1
 150 50 l 1
 350 50 l 1
 350 0 l 1
 150 0 l 1
EndSplineSet
EndChar

StartChar: colon
Encoding: 58 58 27
Width: 500
Flags: HW
LayerCount: 2
Back
Fore
SplineSet
200 350 m 1
 350 350 l 1
 350 400 l 1
 200 400 l 1
 200 350 l 1025
200 300 m 1
 350 300 l 1
 350 350 l 1
 200 350 l 1
 200 300 l 1025
200 50 m 1
 350 50 l 1
 350 100 l 1
 200 100 l 1
 200 50 l 1025
200 0 m 1
 200 50 l 1
 350 50 l 1
 350 0 l 1
 200 0 l 1
EndSplineSet
EndChar

StartChar: semicolon
Encoding: 59 59 28
Width: 500
Flags: HW
LayerCount: 2
Back
Fore
SplineSet
200 350 m 1
 350 350 l 1
 350 400 l 1
 200 400 l 1
 200 350 l 1025
200 300 m 1
 350 300 l 1
 350 350 l 1
 200 350 l 1
 200 300 l 1025
200 50 m 1
 350 50 l 1
 350 100 l 1
 200 100 l 1
 200 50 l 1025
200 0 m 1
 350 0 l 1
 350 50 l 1
 200 50 l 1
 200 0 l 1025
150 -50 m 1
 150 0 l 1
 300 0 l 1
 300 -50 l 1
 150 -50 l 1
EndSplineSet
EndChar

StartChar: less
Encoding: 60 60 29
Width: 500
Flags: HW
LayerCount: 2
Back
Fore
SplineSet
350 600 m 1
 400 600 l 1
 400 650 l 1
 350 650 l 1
 350 600 l 1025
300 550 m 1
 400 550 l 1
 400 600 l 1
 300 600 l 1
 300 550 l 1025
250 500 m 1
 350 500 l 1
 350 550 l 1
 250 550 l 1
 250 500 l 1025
200 450 m 1
 300 450 l 1
 300 500 l 1
 200 500 l 1
 200 450 l 1025
150 400 m 1
 250 400 l 1
 250 450 l 1
 150 450 l 1
 150 400 l 1025
100 350 m 1
 200 350 l 1
 200 400 l 1
 100 400 l 1
 100 350 l 1025
50 300 m 1
 150 300 l 1
 150 350 l 1
 50 350 l 1
 50 300 l 1025
100 250 m 1
 200 250 l 1
 200 300 l 1
 100 300 l 1
 100 250 l 1025
150 200 m 1
 250 200 l 1
 250 250 l 1
 150 250 l 1
 150 200 l 1025
200 150 m 1
 300 150 l 1
 300 200 l 1
 200 200 l 1
 200 150 l 1025
250 100 m 1
 350 100 l 1
 350 150 l 1
 250 150 l 1
 250 100 l 1025
300 50 m 1
 400 50 l 1
 400 100 l 1
 300 100 l 1
 300 50 l 1025
350 0 m 1
 350 50 l 1
 400 50 l 1
 400 0 l 1
 350 0 l 1
EndSplineSet
EndChar

StartChar: equal
Encoding: 61 61 30
Width: 500
Flags: HW
LayerCount: 2
Back
Fore
SplineSet
50 400 m 1
 450 400 l 1
 450 450 l 1
 50 450 l 1
 50 400 l 1025
50 150 m 1
 50 200 l 1
 450 200 l 1
 450 150 l 1
 50 150 l 1
EndSplineSet
EndChar

StartChar: greater
Encoding: 62 62 31
Width: 500
Flags: HW
LayerCount: 2
Back
Fore
SplineSet
100 600 m 1
 150 600 l 1
 150 650 l 1
 100 650 l 1
 100 600 l 1025
100 550 m 1
 200 550 l 1
 200 600 l 1
 100 600 l 1
 100 550 l 1025
150 500 m 1
 250 500 l 1
 250 550 l 1
 150 550 l 1
 150 500 l 1025
200 450 m 1
 300 450 l 1
 300 500 l 1
 200 500 l 1
 200 450 l 1025
250 400 m 1
 350 400 l 1
 350 450 l 1
 250 450 l 1
 250 400 l 1025
300 350 m 1
 400 350 l 1
 400 400 l 1
 300 400 l 1
 300 350 l 1025
350 300 m 1
 450 300 l 1
 450 350 l 1
 350 350 l 1
 350 300 l 1025
300 250 m 1
 400 250 l 1
 400 300 l 1
 300 300 l 1
 300 250 l 1025
250 200 m 1
 350 200 l 1
 350 250 l 1
 250 250 l 1
 250 200 l 1025
200 150 m 1
 300 150 l 1
 300 200 l 1
 200 200 l 1
 200 150 l 1025
150 100 m 1
 250 100 l 1
 250 150 l 1
 150 150 l 1
 150 100 l 1025
100 50 m 1
 200 50 l 1
 200 100 l 1
 100 100 l 1
 100 50 l 1025
100 0 m 1
 100 50 l 1
 150 50 l 1
 150 0 l 1
 100 0 l 1
EndSplineSet
EndChar

StartChar: question
Encoding: 63 63 32
Width: 500
Flags: HW
LayerCount: 2
Back
Fore
SplineSet
150 600 m 1
 350 600 l 1
 350 650 l 1
 150 650 l 1
 150 600 l 1025
100 550 m 1
 200 550 l 1
 200 600 l 1
 100 600 l 1
 100 550 l 1025
300 550 m 1
 400 550 l 1
 400 600 l 1
 300 600 l 1
 300 550 l 1025
50 500 m 1
 150 500 l 1
 150 550 l 1
 50 550 l 1
 50 500 l 1025
350 500 m 1
 450 500 l 1
 450 550 l 1
 350 550 l 1
 350 500 l 1025
50 450 m 1
 150 450 l 1
 150 500 l 1
 50 500 l 1
 50 450 l 1025
350 450 m 1
 450 450 l 1
 450 500 l 1
 350 500 l 1
 350 450 l 1025
50 400 m 1
 150 400 l 1
 150 450 l 1
 50 450 l 1
 50 400 l 1025
350 400 m 1
 450 400 l 1
 450 450 l 1
 350 450 l 1
 350 400 l 1025
300 350 m 1
 400 350 l 1
 400 400 l 1
 300 400 l 1
 300 350 l 1025
250 300 m 1
 350 300 l 1
 350 350 l 1
 250 350 l 1
 250 300 l 1025
200 250 m 1
 300 250 l 1
 300 300 l 1
 200 300 l 1
 200 250 l 1025
200 200 m 1
 300 200 l 1
 300 250 l 1
 200 250 l 1
 200 200 l 1025
200 150 m 1
 300 150 l 1
 300 200 l 1
 200 200 l 1
 200 150 l 1025
200 50 m 1
 300 50 l 1
 300 100 l 1
 200 100 l 1
 200 50 l 1025
200 0 m 1
 200 50 l 1
 300 50 l 1
 300 0 l 1
 200 0 l 1
EndSplineSet
EndChar

StartChar: at
Encoding: 64 64 33
Width: 500
Flags: HW
LayerCount: 2
Back
Fore
SplineSet
150 600 m 1
 350 600 l 1
 350 650 l 1
 150 650 l 1
 150 600 l 1025
100 550 m 1
 200 550 l 1
 200 600 l 1
 100 600 l 1
 100 550 l 1025
300 550 m 1
 400 550 l 1
 400 600 l 1
 300 600 l 1
 300 550 l 1025
50 500 m 1
 150 500 l 1
 150 550 l 1
 50 550 l 1
 50 500 l 1025
350 500 m 1
 450 500 l 1
 450 550 l 1
 350 550 l 1
 350 500 l 1025
50 450 m 1
 150 450 l 1
 150 500 l 1
 50 500 l 1
 50 450 l 1025
250 450 m 1
 450 450 l 1
 450 500 l 1
 250 500 l 1
 250 450 l 1025
50 400 m 1
 150 400 l 1
 150 450 l 1
 50 450 l 1
 50 400 l 1025
200 400 m 1
 450 400 l 1
 450 450 l 1
 200 450 l 1
 200 400 l 1025
50 350 m 1
 150 350 l 1
 150 400 l 1
 50 400 l 1
 50 350 l 1025
200 350 m 1
 300 350 l 1
 300 400 l 1
 200 400 l 1
 200 350 l 1025
350 350 m 1
 450 350 l 1
 450 400 l 1
 350 400 l 1
 350 350 l 1025
50 300 m 1
 150 300 l 1
 150 350 l 1
 50 350 l 1
 50 300 l 1025
200 300 m 1
 300 300 l 1
 300 350 l 1
 200 350 l 1
 200 300 l 1025
350 300 m 1
 450 300 l 1
 450 350 l 1
 350 350 l 1
 350 300 l 1025
50 250 m 1
 150 250 l 1
 150 300 l 1
 50 300 l 1
 50 250 l 1025
200 250 m 1
 300 250 l 1
 300 300 l 1
 200 300 l 1
 200 250 l 1025
350 250 m 1
 450 250 l 1
 450 300 l 1
 350 300 l 1
 350 250 l 1025
50 200 m 1
 150 200 l 1
 150 250 l 1
 50 250 l 1
 50 200 l 1025
200 200 m 1
 400 200 l 1
 400 250 l 1
 200 250 l 1
 200 200 l 1025
50 150 m 1
 150 150 l 1
 150 200 l 1
 50 200 l 1
 50 150 l 1025
250 150 m 1
 350 150 l 1
 350 200 l 1
 250 200 l 1
 250 150 l 1025
50 100 m 1
 150 100 l 1
 150 150 l 1
 50 150 l 1
 50 100 l 1025
100 50 m 1
 200 50 l 1
 200 100 l 1
 100 100 l 1
 100 50 l 1025
350 50 m 1
 450 50 l 1
 450 100 l 1
 350 100 l 1
 350 50 l 1025
150 0 m 1
 150 50 l 1
 400 50 l 1
 400 0 l 1
 150 0 l 1
EndSplineSet
EndChar

StartChar: A
Encoding: 65 65 34
Width: 500
Flags: HW
LayerCount: 2
Back
Fore
SplineSet
200 600 m 1
 300 600 l 1
 300 650 l 1
 200 650 l 1
 200 600 l 1025
150 550 m 1
 350 550 l 1
 350 600 l 1
 150 600 l 1
 150 550 l 1025
100 500 m 1
 200 500 l 1
 200 550 l 1
 100 550 l 1
 100 500 l 1025
300 500 m 1
 400 500 l 1
 400 550 l 1
 300 550 l 1
 300 500 l 1025
100 450 m 1
 200 450 l 1
 200 500 l 1
 100 500 l 1
 100 450 l 1025
300 450 m 1
 400 450 l 1
 400 500 l 1
 300 500 l 1
 300 450 l 1025
50 400 m 1
 150 400 l 1
 150 450 l 1
 50 450 l 1
 50 400 l 1025
350 400 m 1
 450 400 l 1
 450 450 l 1
 350 450 l 1
 350 400 l 1025
50 350 m 1
 150 350 l 1
 150 400 l 1
 50 400 l 1
 50 350 l 1025
350 350 m 1
 450 350 l 1
 450 400 l 1
 350 400 l 1
 350 350 l 1025
50 300 m 1
 150 300 l 1
 150 350 l 1
 50 350 l 1
 50 300 l 1025
350 300 m 1
 450 300 l 1
 450 350 l 1
 350 350 l 1
 350 300 l 1025
50 250 m 1
 450 250 l 1
 450 300 l 1
 50 300 l 1
 50 250 l 1025
50 200 m 1
 150 200 l 1
 150 250 l 1
 50 250 l 1
 50 200 l 1025
350 200 m 1
 450 200 l 1
 450 250 l 1
 350 250 l 1
 350 200 l 1025
50 150 m 1
 150 150 l 1
 150 200 l 1
 50 200 l 1
 50 150 l 1025
350 150 m 1
 450 150 l 1
 450 200 l 1
 350 200 l 1
 350 150 l 1025
50 100 m 1
 150 100 l 1
 150 150 l 1
 50 150 l 1
 50 100 l 1025
350 100 m 1
 450 100 l 1
 450 150 l 1
 350 150 l 1
 350 100 l 1025
50 50 m 1
 150 50 l 1
 150 100 l 1
 50 100 l 1
 50 50 l 1025
350 50 m 1
 450 50 l 1
 450 100 l 1
 350 100 l 1
 350 50 l 1025
50 0 m 1
 150 0 l 1
 150 50 l 1
 50 50 l 1
 50 0 l 1025
350 0 m 1
 350 50 l 1
 450 50 l 1
 450 0 l 1
 350 0 l 1
EndSplineSet
EndChar

StartChar: B
Encoding: 66 66 35
Width: 500
Flags: HW
LayerCount: 2
Back
Fore
SplineSet
50 600 m 1
 300 600 l 1
 300 650 l 1
 50 650 l 1
 50 600 l 1025
50 550 m 1
 150 550 l 1
 150 600 l 1
 50 600 l 1
 50 550 l 1025
250 550 m 1
 350 550 l 1
 350 600 l 1
 250 600 l 1
 250 550 l 1025
50 500 m 1
 150 500 l 1
 150 550 l 1
 50 550 l 1
 50 500 l 1025
300 500 m 1
 400 500 l 1
 400 550 l 1
 300 550 l 1
 300 500 l 1025
50 450 m 1
 150 450 l 1
 150 500 l 1
 50 500 l 1
 50 450 l 1025
300 450 m 1
 400 450 l 1
 400 500 l 1
 300 500 l 1
 300 450 l 1025
50 400 m 1
 150 400 l 1
 150 450 l 1
 50 450 l 1
 50 400 l 1025
300 400 m 1
 400 400 l 1
 400 450 l 1
 300 450 l 1
 300 400 l 1025
50 350 m 1
 150 350 l 1
 150 400 l 1
 50 400 l 1
 50 350 l 1025
250 350 m 1
 350 350 l 1
 350 400 l 1
 250 400 l 1
 250 350 l 1025
50 300 m 1
 350 300 l 1
 350 350 l 1
 50 350 l 1
 50 300 l 1025
50 250 m 1
 150 250 l 1
 150 300 l 1
 50 300 l 1
 50 250 l 1025
300 250 m 1
 400 250 l 1
 400 300 l 1
 300 300 l 1
 300 250 l 1025
50 200 m 1
 150 200 l 1
 150 250 l 1
 50 250 l 1
 50 200 l 1025
350 200 m 1
 450 200 l 1
 450 250 l 1
 350 250 l 1
 350 200 l 1025
50 150 m 1
 150 150 l 1
 150 200 l 1
 50 200 l 1
 50 150 l 1025
350 150 m 1
 450 150 l 1
 450 200 l 1
 350 200 l 1
 350 150 l 1025
50 100 m 1
 150 100 l 1
 150 150 l 1
 50 150 l 1
 50 100 l 1025
350 100 m 1
 450 100 l 1
 450 150 l 1
 350 150 l 1
 350 100 l 1025
50 50 m 1
 150 50 l 1
 150 100 l 1
 50 100 l 1
 50 50 l 1025
300 50 m 1
 400 50 l 1
 400 100 l 1
 300 100 l 1
 300 50 l 1025
50 0 m 1
 50 50 l 1
 350 50 l 1
 350 0 l 1
 50 0 l 1
EndSplineSet
EndChar

StartChar: C
Encoding: 67 67 36
Width: 500
Flags: HW
LayerCount: 2
Back
Fore
SplineSet
150 600 m 1
 350 600 l 1
 350 650 l 1
 150 650 l 1
 150 600 l 1025
100 550 m 1
 200 550 l 1
 200 600 l 1
 100 600 l 1
 100 550 l 1025
300 550 m 1
 400 550 l 1
 400 600 l 1
 300 600 l 1
 300 550 l 1025
50 500 m 1
 150 500 l 1
 150 550 l 1
 50 550 l 1
 50 500 l 1025
350 500 m 1
 450 500 l 1
 450 550 l 1
 350 550 l 1
 350 500 l 1025
50 450 m 1
 150 450 l 1
 150 500 l 1
 50 500 l 1
 50 450 l 1025
50 400 m 1
 150 400 l 1
 150 450 l 1
 50 450 l 1
 50 400 l 1025
50 350 m 1
 150 350 l 1
 150 400 l 1
 50 400 l 1
 50 350 l 1025
50 300 m 1
 150 300 l 1
 150 350 l 1
 50 350 l 1
 50 300 l 1025
50 250 m 1
 150 250 l 1
 150 300 l 1
 50 300 l 1
 50 250 l 1025
50 200 m 1
 150 200 l 1
 150 250 l 1
 50 250 l 1
 50 200 l 1025
50 150 m 1
 150 150 l 1
 150 200 l 1
 50 200 l 1
 50 150 l 1025
50 100 m 1
 150 100 l 1
 150 150 l 1
 50 150 l 1
 50 100 l 1025
350 100 m 1
 450 100 l 1
 450 150 l 1
 350 150 l 1
 350 100 l 1025
100 50 m 1
 200 50 l 1
 200 100 l 1
 100 100 l 1
 100 50 l 1025
300 50 m 1
 400 50 l 1
 400 100 l 1
 300 100 l 1
 300 50 l 1025
150 0 m 1
 150 50 l 1
 350 50 l 1
 350 0 l 1
 150 0 l 1
EndSplineSet
EndChar

StartChar: D
Encoding: 68 68 37
Width: 500
Flags: HW
LayerCount: 2
Back
Fore
SplineSet
50 600 m 1
 350 600 l 1
 350 650 l 1
 50 650 l 1
 50 600 l 1025
50 550 m 1
 150 550 l 1
 150 600 l 1
 50 600 l 1
 50 550 l 1025
300 550 m 1
 400 550 l 1
 400 600 l 1
 300 600 l 1
 300 550 l 1025
50 500 m 1
 150 500 l 1
 150 550 l 1
 50 550 l 1
 50 500 l 1025
350 500 m 1
 450 500 l 1
 450 550 l 1
 350 550 l 1
 350 500 l 1025
50 450 m 1
 150 450 l 1
 150 500 l 1
 50 500 l 1
 50 450 l 1025
350 450 m 1
 450 450 l 1
 450 500 l 1
 350 500 l 1
 350 450 l 1025
50 400 m 1
 150 400 l 1
 150 450 l 1
 50 450 l 1
 50 400 l 1025
350 400 m 1
 450 400 l 1
 450 450 l 1
 350 450 l 1
 350 400 l 1025
50 350 m 1
 150 350 l 1
 150 400 l 1
 50 400 l 1
 50 350 l 1025
350 350 m 1
 450 350 l 1
 450 400 l 1
 350 400 l 1
 350 350 l 1025
50 300 m 1
 150 300 l 1
 150 350 l 1
 50 350 l 1
 50 300 l 1025
350 300 m 1
 450 300 l 1
 450 350 l 1
 350 350 l 1
 350 300 l 1025
50 250 m 1
 150 250 l 1
 150 300 l 1
 50 300 l 1
 50 250 l 1025
350 250 m 1
 450 250 l 1
 450 300 l 1
 350 300 l 1
 350 250 l 1025
50 200 m 1
 150 200 l 1
 150 250 l 1
 50 250 l 1
 50 200 l 1025
350 200 m 1
 450 200 l 1
 450 250 l 1
 350 250 l 1
 350 200 l 1025
50 150 m 1
 150 150 l 1
 150 200 l 1
 50 200 l 1
 50 150 l 1025
350 150 m 1
 450 150 l 1
 450 200 l 1
 350 200 l 1
 350 150 l 1025
50 100 m 1
 150 100 l 1
 150 150 l 1
 50 150 l 1
 50 100 l 1025
350 100 m 1
 450 100 l 1
 450 150 l 1
 350 150 l 1
 350 100 l 1025
50 50 m 1
 150 50 l 1
 150 100 l 1
 50 100 l 1
 50 50 l 1025
300 50 m 1
 400 50 l 1
 400 100 l 1
 300 100 l 1
 300 50 l 1025
50 0 m 1
 50 50 l 1
 350 50 l 1
 350 0 l 1
 50 0 l 1
EndSplineSet
EndChar

StartChar: E
Encoding: 69 69 38
Width: 500
Flags: HW
LayerCount: 2
Back
Fore
SplineSet
50 600 m 1
 450 600 l 1
 450 650 l 1
 50 650 l 1
 50 600 l 1025
50 550 m 1
 150 550 l 1
 150 600 l 1
 50 600 l 1
 50 550 l 1025
50 500 m 1
 150 500 l 1
 150 550 l 1
 50 550 l 1
 50 500 l 1025
50 450 m 1
 150 450 l 1
 150 500 l 1
 50 500 l 1
 50 450 l 1025
50 400 m 1
 150 400 l 1
 150 450 l 1
 50 450 l 1
 50 400 l 1025
50 350 m 1
 150 350 l 1
 150 400 l 1
 50 400 l 1
 50 350 l 1025
50 300 m 1
 350 300 l 1
 350 350 l 1
 50 350 l 1
 50 300 l 1025
50 250 m 1
 150 250 l 1
 150 300 l 1
 50 300 l 1
 50 250 l 1025
50 200 m 1
 150 200 l 1
 150 250 l 1
 50 250 l 1
 50 200 l 1025
50 150 m 1
 150 150 l 1
 150 200 l 1
 50 200 l 1
 50 150 l 1025
50 100 m 1
 150 100 l 1
 150 150 l 1
 50 150 l 1
 50 100 l 1025
50 50 m 1
 150 50 l 1
 150 100 l 1
 50 100 l 1
 50 50 l 1025
50 0 m 1
 50 50 l 1
 450 50 l 1
 450 0 l 1
 50 0 l 1
EndSplineSet
EndChar

StartChar: F
Encoding: 70 70 39
Width: 500
Flags: HW
LayerCount: 2
Back
Fore
SplineSet
50 600 m 1
 450 600 l 1
 450 650 l 1
 50 650 l 1
 50 600 l 1025
50 550 m 1
 150 550 l 1
 150 600 l 1
 50 600 l 1
 50 550 l 1025
50 500 m 1
 150 500 l 1
 150 550 l 1
 50 550 l 1
 50 500 l 1025
50 450 m 1
 150 450 l 1
 150 500 l 1
 50 500 l 1
 50 450 l 1025
50 400 m 1
 150 400 l 1
 150 450 l 1
 50 450 l 1
 50 400 l 1025
50 350 m 1
 150 350 l 1
 150 400 l 1
 50 400 l 1
 50 350 l 1025
50 300 m 1
 350 300 l 1
 350 350 l 1
 50 350 l 1
 50 300 l 1025
50 250 m 1
 150 250 l 1
 150 300 l 1
 50 300 l 1
 50 250 l 1025
50 200 m 1
 150 200 l 1
 150 250 l 1
 50 250 l 1
 50 200 l 1025
50 150 m 1
 150 150 l 1
 150 200 l 1
 50 200 l 1
 50 150 l 1025
50 100 m 1
 150 100 l 1
 150 150 l 1
 50 150 l 1
 50 100 l 1025
50 50 m 1
 150 50 l 1
 150 100 l 1
 50 100 l 1
 50 50 l 1025
50 0 m 1
 50 50 l 1
 150 50 l 1
 150 0 l 1
 50 0 l 1
EndSplineSet
EndChar

StartChar: G
Encoding: 71 71 40
Width: 500
Flags: HW
LayerCount: 2
Back
Fore
SplineSet
150 600 m 1
 350 600 l 1
 350 650 l 1
 150 650 l 1
 150 600 l 1025
100 550 m 1
 200 550 l 1
 200 600 l 1
 100 600 l 1
 100 550 l 1025
300 550 m 1
 400 550 l 1
 400 600 l 1
 300 600 l 1
 300 550 l 1025
50 500 m 1
 150 500 l 1
 150 550 l 1
 50 550 l 1
 50 500 l 1025
350 500 m 1
 450 500 l 1
 450 550 l 1
 350 550 l 1
 350 500 l 1025
50 450 m 1
 150 450 l 1
 150 500 l 1
 50 500 l 1
 50 450 l 1025
50 400 m 1
 150 400 l 1
 150 450 l 1
 50 450 l 1
 50 400 l 1025
50 350 m 1
 150 350 l 1
 150 400 l 1
 50 400 l 1
 50 350 l 1025
50 300 m 1
 150 300 l 1
 150 350 l 1
 50 350 l 1
 50 300 l 1025
250 300 m 1
 450 300 l 1
 450 350 l 1
 250 350 l 1
 250 300 l 1025
50 250 m 1
 150 250 l 1
 150 300 l 1
 50 300 l 1
 50 250 l 1025
350 250 m 1
 450 250 l 1
 450 300 l 1
 350 300 l 1
 350 250 l 1025
50 200 m 1
 150 200 l 1
 150 250 l 1
 50 250 l 1
 50 200 l 1025
350 200 m 1
 450 200 l 1
 450 250 l 1
 350 250 l 1
 350 200 l 1025
50 150 m 1
 150 150 l 1
 150 200 l 1
 50 200 l 1
 50 150 l 1025
350 150 m 1
 450 150 l 1
 450 200 l 1
 350 200 l 1
 350 150 l 1025
50 100 m 1
 150 100 l 1
 150 150 l 1
 50 150 l 1
 50 100 l 1025
350 100 m 1
 450 100 l 1
 450 150 l 1
 350 150 l 1
 350 100 l 1025
100 50 m 1
 200 50 l 1
 200 100 l 1
 100 100 l 1
 100 50 l 1025
300 50 m 1
 450 50 l 1
 450 100 l 1
 300 100 l 1
 300 50 l 1025
150 0 m 1
 350 0 l 1
 350 50 l 1
 150 50 l 1
 150 0 l 1025
400 0 m 1
 400 50 l 1
 450 50 l 1
 450 0 l 1
 400 0 l 1
EndSplineSet
EndChar

StartChar: H
Encoding: 72 72 41
Width: 500
Flags: HW
LayerCount: 2
Back
Fore
SplineSet
50 600 m 1
 150 600 l 1
 150 650 l 1
 50 650 l 1
 50 600 l 1025
350 600 m 1
 450 600 l 1
 450 650 l 1
 350 650 l 1
 350 600 l 1025
50 550 m 1
 150 550 l 1
 150 600 l 1
 50 600 l 1
 50 550 l 1025
350 550 m 1
 450 550 l 1
 450 600 l 1
 350 600 l 1
 350 550 l 1025
50 500 m 1
 150 500 l 1
 150 550 l 1
 50 550 l 1
 50 500 l 1025
350 500 m 1
 450 500 l 1
 450 550 l 1
 350 550 l 1
 350 500 l 1025
50 450 m 1
 150 450 l 1
 150 500 l 1
 50 500 l 1
 50 450 l 1025
350 450 m 1
 450 450 l 1
 450 500 l 1
 350 500 l 1
 350 450 l 1025
50 400 m 1
 150 400 l 1
 150 450 l 1
 50 450 l 1
 50 400 l 1025
350 400 m 1
 450 400 l 1
 450 450 l 1
 350 450 l 1
 350 400 l 1025
50 350 m 1
 150 350 l 1
 150 400 l 1
 50 400 l 1
 50 350 l 1025
350 350 m 1
 450 350 l 1
 450 400 l 1
 350 400 l 1
 350 350 l 1025
50 300 m 1
 450 300 l 1
 450 350 l 1
 50 350 l 1
 50 300 l 1025
50 250 m 1
 150 250 l 1
 150 300 l 1
 50 300 l 1
 50 250 l 1025
350 250 m 1
 450 250 l 1
 450 300 l 1
 350 300 l 1
 350 250 l 1025
50 200 m 1
 150 200 l 1
 150 250 l 1
 50 250 l 1
 50 200 l 1025
350 200 m 1
 450 200 l 1
 450 250 l 1
 350 250 l 1
 350 200 l 1025
50 150 m 1
 150 150 l 1
 150 200 l 1
 50 200 l 1
 50 150 l 1025
350 150 m 1
 450 150 l 1
 450 200 l 1
 350 200 l 1
 350 150 l 1025
50 100 m 1
 150 100 l 1
 150 150 l 1
 50 150 l 1
 50 100 l 1025
350 100 m 1
 450 100 l 1
 450 150 l 1
 350 150 l 1
 350 100 l 1025
50 50 m 1
 150 50 l 1
 150 100 l 1
 50 100 l 1
 50 50 l 1025
350 50 m 1
 450 50 l 1
 450 100 l 1
 350 100 l 1
 350 50 l 1025
50 0 m 1
 150 0 l 1
 150 50 l 1
 50 50 l 1
 50 0 l 1025
350 0 m 1
 350 50 l 1
 450 50 l 1
 450 0 l 1
 350 0 l 1
EndSplineSet
EndChar

StartChar: I
Encoding: 73 73 42
Width: 500
Flags: HW
LayerCount: 2
Back
Fore
SplineSet
50 600 m 1
 450 600 l 1
 450 650 l 1
 50 650 l 1
 50 600 l 1025
200 550 m 1
 300 550 l 1
 300 600 l 1
 200 600 l 1
 200 550 l 1025
200 500 m 1
 300 500 l 1
 300 550 l 1
 200 550 l 1
 200 500 l 1025
200 450 m 1
 300 450 l 1
 300 500 l 1
 200 500 l 1
 200 450 l 1025
200 400 m 1
 300 400 l 1
 300 450 l 1
 200 450 l 1
 200 400 l 1025
200 350 m 1
 300 350 l 1
 300 400 l 1
 200 400 l 1
 200 350 l 1025
200 300 m 1
 300 300 l 1
 300 350 l 1
 200 350 l 1
 200 300 l 1025
200 250 m 1
 300 250 l 1
 300 300 l 1
 200 300 l 1
 200 250 l 1025
200 200 m 1
 300 200 l 1
 300 250 l 1
 200 250 l 1
 200 200 l 1025
200 150 m 1
 300 150 l 1
 300 200 l 1
 200 200 l 1
 200 150 l 1025
200 100 m 1
 300 100 l 1
 300 150 l 1
 200 150 l 1
 200 100 l 1025
200 50 m 1
 300 50 l 1
 300 100 l 1
 200 100 l 1
 200 50 l 1025
50 0 m 1
 50 50 l 1
 450 50 l 1
 450 0 l 1
 50 0 l 1
EndSplineSet
EndChar

StartChar: J
Encoding: 74 74 43
Width: 500
Flags: HW
LayerCount: 2
Back
Fore
SplineSet
200 600 m 1
 500 600 l 1
 500 650 l 1
 200 650 l 1
 200 600 l 1025
300 550 m 1
 400 550 l 1
 400 600 l 1
 300 600 l 1
 300 550 l 1025
300 500 m 1
 400 500 l 1
 400 550 l 1
 300 550 l 1
 300 500 l 1025
300 450 m 1
 400 450 l 1
 400 500 l 1
 300 500 l 1
 300 450 l 1025
300 400 m 1
 400 400 l 1
 400 450 l 1
 300 450 l 1
 300 400 l 1025
300 350 m 1
 400 350 l 1
 400 400 l 1
 300 400 l 1
 300 350 l 1025
300 300 m 1
 400 300 l 1
 400 350 l 1
 300 350 l 1
 300 300 l 1025
300 250 m 1
 400 250 l 1
 400 300 l 1
 300 300 l 1
 300 250 l 1025
300 200 m 1
 400 200 l 1
 400 250 l 1
 300 250 l 1
 300 200 l 1025
50 150 m 1
 150 150 l 1
 150 200 l 1
 50 200 l 1
 50 150 l 1025
300 150 m 1
 400 150 l 1
 400 200 l 1
 300 200 l 1
 300 150 l 1025
50 100 m 1
 150 100 l 1
 150 150 l 1
 50 150 l 1
 50 100 l 1025
300 100 m 1
 400 100 l 1
 400 150 l 1
 300 150 l 1
 300 100 l 1025
100 50 m 1
 200 50 l 1
 200 100 l 1
 100 100 l 1
 100 50 l 1025
250 50 m 1
 350 50 l 1
 350 100 l 1
 250 100 l 1
 250 50 l 1025
150 0 m 1
 150 50 l 1
 300 50 l 1
 300 0 l 1
 150 0 l 1
EndSplineSet
EndChar

StartChar: K
Encoding: 75 75 44
Width: 500
Flags: HW
LayerCount: 2
Back
Fore
SplineSet
50 600 m 1
 150 600 l 1
 150 650 l 1
 50 650 l 1
 50 600 l 1025
350 600 m 1
 450 600 l 1
 450 650 l 1
 350 650 l 1
 350 600 l 1025
50 550 m 1
 150 550 l 1
 150 600 l 1
 50 600 l 1
 50 550 l 1025
350 550 m 1
 450 550 l 1
 450 600 l 1
 350 600 l 1
 350 550 l 1025
50 500 m 1
 150 500 l 1
 150 550 l 1
 50 550 l 1
 50 500 l 1025
300 500 m 1
 400 500 l 1
 400 550 l 1
 300 550 l 1
 300 500 l 1025
50 450 m 1
 150 450 l 1
 150 500 l 1
 50 500 l 1
 50 450 l 1025
300 450 m 1
 400 450 l 1
 400 500 l 1
 300 500 l 1
 300 450 l 1025
50 400 m 1
 150 400 l 1
 150 450 l 1
 50 450 l 1
 50 400 l 1025
250 400 m 1
 350 400 l 1
 350 450 l 1
 250 450 l 1
 250 400 l 1025
50 350 m 1
 150 350 l 1
 150 400 l 1
 50 400 l 1
 50 350 l 1025
250 350 m 1
 350 350 l 1
 350 400 l 1
 250 400 l 1
 250 350 l 1025
50 300 m 1
 300 300 l 1
 300 350 l 1
 50 350 l 1
 50 300 l 1025
50 250 m 1
 150 250 l 1
 150 300 l 1
 50 300 l 1
 50 250 l 1025
250 250 m 1
 350 250 l 1
 350 300 l 1
 250 300 l 1
 250 250 l 1025
50 200 m 1
 150 200 l 1
 150 250 l 1
 50 250 l 1
 50 200 l 1025
250 200 m 1
 350 200 l 1
 350 250 l 1
 250 250 l 1
 250 200 l 1025
50 150 m 1
 150 150 l 1
 150 200 l 1
 50 200 l 1
 50 150 l 1025
300 150 m 1
 400 150 l 1
 400 200 l 1
 300 200 l 1
 300 150 l 1025
50 100 m 1
 150 100 l 1
 150 150 l 1
 50 150 l 1
 50 100 l 1025
300 100 m 1
 400 100 l 1
 400 150 l 1
 300 150 l 1
 300 100 l 1025
50 50 m 1
 150 50 l 1
 150 100 l 1
 50 100 l 1
 50 50 l 1025
350 50 m 1
 450 50 l 1
 450 100 l 1
 350 100 l 1
 350 50 l 1025
50 0 m 1
 150 0 l 1
 150 50 l 1
 50 50 l 1
 50 0 l 1025
350 0 m 1
 350 50 l 1
 450 50 l 1
 450 0 l 1
 350 0 l 1
EndSplineSet
EndChar

StartChar: L
Encoding: 76 76 45
Width: 500
Flags: HW
LayerCount: 2
Back
Fore
SplineSet
50 600 m 1
 150 600 l 1
 150 650 l 1
 50 650 l 1
 50 600 l 1025
50 550 m 1
 150 550 l 1
 150 600 l 1
 50 600 l 1
 50 550 l 1025
50 500 m 1
 150 500 l 1
 150 550 l 1
 50 550 l 1
 50 500 l 1025
50 450 m 1
 150 450 l 1
 150 500 l 1
 50 500 l 1
 50 450 l 1025
50 400 m 1
 150 400 l 1
 150 450 l 1
 50 450 l 1
 50 400 l 1025
50 350 m 1
 150 350 l 1
 150 400 l 1
 50 400 l 1
 50 350 l 1025
50 300 m 1
 150 300 l 1
 150 350 l 1
 50 350 l 1
 50 300 l 1025
50 250 m 1
 150 250 l 1
 150 300 l 1
 50 300 l 1
 50 250 l 1025
50 200 m 1
 150 200 l 1
 150 250 l 1
 50 250 l 1
 50 200 l 1025
50 150 m 1
 150 150 l 1
 150 200 l 1
 50 200 l 1
 50 150 l 1025
50 100 m 1
 150 100 l 1
 150 150 l 1
 50 150 l 1
 50 100 l 1025
50 50 m 1
 150 50 l 1
 150 100 l 1
 50 100 l 1
 50 50 l 1025
50 0 m 1
 50 50 l 1
 450 50 l 1
 450 0 l 1
 50 0 l 1
EndSplineSet
EndChar

StartChar: M
Encoding: 77 77 46
Width: 500
Flags: HW
LayerCount: 2
Back
Fore
SplineSet
50 600 m 1
 150 600 l 1
 150 650 l 1
 50 650 l 1
 50 600 l 1025
350 600 m 1
 450 600 l 1
 450 650 l 1
 350 650 l 1
 350 600 l 1025
50 550 m 1
 150 550 l 1
 150 600 l 1
 50 600 l 1
 50 550 l 1025
350 550 m 1
 450 550 l 1
 450 600 l 1
 350 600 l 1
 350 550 l 1025
50 500 m 1
 200 500 l 1
 200 550 l 1
 50 550 l 1
 50 500 l 1025
300 500 m 1
 450 500 l 1
 450 550 l 1
 300 550 l 1
 300 500 l 1025
50 450 m 1
 200 450 l 1
 200 500 l 1
 50 500 l 1
 50 450 l 1025
300 450 m 1
 450 450 l 1
 450 500 l 1
 300 500 l 1
 300 450 l 1025
50 400 m 1
 450 400 l 1
 450 450 l 1
 50 450 l 1
 50 400 l 1025
50 350 m 1
 150 350 l 1
 150 400 l 1
 50 400 l 1
 50 350 l 1025
200 350 m 1
 300 350 l 1
 300 400 l 1
 200 400 l 1
 200 350 l 1025
350 350 m 1
 450 350 l 1
 450 400 l 1
 350 400 l 1
 350 350 l 1025
50 300 m 1
 150 300 l 1
 150 350 l 1
 50 350 l 1
 50 300 l 1025
200 300 m 1
 300 300 l 1
 300 350 l 1
 200 350 l 1
 200 300 l 1025
350 300 m 1
 450 300 l 1
 450 350 l 1
 350 350 l 1
 350 300 l 1025
50 250 m 1
 150 250 l 1
 150 300 l 1
 50 300 l 1
 50 250 l 1025
200 250 m 1
 300 250 l 1
 300 300 l 1
 200 300 l 1
 200 250 l 1025
350 250 m 1
 450 250 l 1
 450 300 l 1
 350 300 l 1
 350 250 l 1025
50 200 m 1
 150 200 l 1
 150 250 l 1
 50 250 l 1
 50 200 l 1025
200 200 m 1
 300 200 l 1
 300 250 l 1
 200 250 l 1
 200 200 l 1025
350 200 m 1
 450 200 l 1
 450 250 l 1
 350 250 l 1
 350 200 l 1025
50 150 m 1
 150 150 l 1
 150 200 l 1
 50 200 l 1
 50 150 l 1025
350 150 m 1
 450 150 l 1
 450 200 l 1
 350 200 l 1
 350 150 l 1025
50 100 m 1
 150 100 l 1
 150 150 l 1
 50 150 l 1
 50 100 l 1025
350 100 m 1
 450 100 l 1
 450 150 l 1
 350 150 l 1
 350 100 l 1025
50 50 m 1
 150 50 l 1
 150 100 l 1
 50 100 l 1
 50 50 l 1025
350 50 m 1
 450 50 l 1
 450 100 l 1
 350 100 l 1
 350 50 l 1025
50 0 m 1
 150 0 l 1
 150 50 l 1
 50 50 l 1
 50 0 l 1025
350 0 m 1
 350 50 l 1
 450 50 l 1
 450 0 l 1
 350 0 l 1
EndSplineSet
EndChar

StartChar: N
Encoding: 78 78 47
Width: 500
Flags: HW
LayerCount: 2
Back
Fore
SplineSet
50 600 m 1
 150 600 l 1
 150 650 l 1
 50 650 l 1
 50 600 l 1025
350 600 m 1
 450 600 l 1
 450 650 l 1
 350 650 l 1
 350 600 l 1025
50 550 m 1
 200 550 l 1
 200 600 l 1
 50 600 l 1
 50 550 l 1025
350 550 m 1
 450 550 l 1
 450 600 l 1
 350 600 l 1
 350 550 l 1025
50 500 m 1
 200 500 l 1
 200 550 l 1
 50 550 l 1
 50 500 l 1025
350 500 m 1
 450 500 l 1
 450 550 l 1
 350 550 l 1
 350 500 l 1025
50 450 m 1
 250 450 l 1
 250 500 l 1
 50 500 l 1
 50 450 l 1025
350 450 m 1
 450 450 l 1
 450 500 l 1
 350 500 l 1
 350 450 l 1025
50 400 m 1
 250 400 l 1
 250 450 l 1
 50 450 l 1
 50 400 l 1025
350 400 m 1
 450 400 l 1
 450 450 l 1
 350 450 l 1
 350 400 l 1025
50 350 m 1
 150 350 l 1
 150 400 l 1
 50 400 l 1
 50 350 l 1025
200 350 m 1
 300 350 l 1
 300 400 l 1
 200 400 l 1
 200 350 l 1025
350 350 m 1
 450 350 l 1
 450 400 l 1
 350 400 l 1
 350 350 l 1025
50 300 m 1
 150 300 l 1
 150 350 l 1
 50 350 l 1
 50 300 l 1025
200 300 m 1
 300 300 l 1
 300 350 l 1
 200 350 l 1
 200 300 l 1025
350 300 m 1
 450 300 l 1
 450 350 l 1
 350 350 l 1
 350 300 l 1025
50 250 m 1
 150 250 l 1
 150 300 l 1
 50 300 l 1
 50 250 l 1025
250 250 m 1
 450 250 l 1
 450 300 l 1
 250 300 l 1
 250 250 l 1025
50 200 m 1
 150 200 l 1
 150 250 l 1
 50 250 l 1
 50 200 l 1025
250 200 m 1
 450 200 l 1
 450 250 l 1
 250 250 l 1
 250 200 l 1025
50 150 m 1
 150 150 l 1
 150 200 l 1
 50 200 l 1
 50 150 l 1025
300 150 m 1
 450 150 l 1
 450 200 l 1
 300 200 l 1
 300 150 l 1025
50 100 m 1
 150 100 l 1
 150 150 l 1
 50 150 l 1
 50 100 l 1025
300 100 m 1
 450 100 l 1
 450 150 l 1
 300 150 l 1
 300 100 l 1025
50 50 m 1
 150 50 l 1
 150 100 l 1
 50 100 l 1
 50 50 l 1025
350 50 m 1
 450 50 l 1
 450 100 l 1
 350 100 l 1
 350 50 l 1025
50 0 m 1
 150 0 l 1
 150 50 l 1
 50 50 l 1
 50 0 l 1025
350 0 m 1
 350 50 l 1
 450 50 l 1
 450 0 l 1
 350 0 l 1
EndSplineSet
EndChar

StartChar: O
Encoding: 79 79 48
Width: 500
Flags: HW
LayerCount: 2
Back
Fore
SplineSet
150 600 m 1
 350 600 l 1
 350 650 l 1
 150 650 l 1
 150 600 l 1025
100 550 m 1
 200 550 l 1
 200 600 l 1
 100 600 l 1
 100 550 l 1025
300 550 m 1
 400 550 l 1
 400 600 l 1
 300 600 l 1
 300 550 l 1025
50 500 m 1
 150 500 l 1
 150 550 l 1
 50 550 l 1
 50 500 l 1025
350 500 m 1
 450 500 l 1
 450 550 l 1
 350 550 l 1
 350 500 l 1025
50 450 m 1
 150 450 l 1
 150 500 l 1
 50 500 l 1
 50 450 l 1025
350 450 m 1
 450 450 l 1
 450 500 l 1
 350 500 l 1
 350 450 l 1025
50 400 m 1
 150 400 l 1
 150 450 l 1
 50 450 l 1
 50 400 l 1025
350 400 m 1
 450 400 l 1
 450 450 l 1
 350 450 l 1
 350 400 l 1025
50 350 m 1
 150 350 l 1
 150 400 l 1
 50 400 l 1
 50 350 l 1025
350 350 m 1
 450 350 l 1
 450 400 l 1
 350 400 l 1
 350 350 l 1025
50 300 m 1
 150 300 l 1
 150 350 l 1
 50 350 l 1
 50 300 l 1025
350 300 m 1
 450 300 l 1
 450 350 l 1
 350 350 l 1
 350 300 l 1025
50 250 m 1
 150 250 l 1
 150 300 l 1
 50 300 l 1
 50 250 l 1025
350 250 m 1
 450 250 l 1
 450 300 l 1
 350 300 l 1
 350 250 l 1025
50 200 m 1
 150 200 l 1
 150 250 l 1
 50 250 l 1
 50 200 l 1025
350 200 m 1
 450 200 l 1
 450 250 l 1
 350 250 l 1
 350 200 l 1025
50 150 m 1
 150 150 l 1
 150 200 l 1
 50 200 l 1
 50 150 l 1025
350 150 m 1
 450 150 l 1
 450 200 l 1
 350 200 l 1
 350 150 l 1025
50 100 m 1
 150 100 l 1
 150 150 l 1
 50 150 l 1
 50 100 l 1025
350 100 m 1
 450 100 l 1
 450 150 l 1
 350 150 l 1
 350 100 l 1025
100 50 m 1
 200 50 l 1
 200 100 l 1
 100 100 l 1
 100 50 l 1025
300 50 m 1
 400 50 l 1
 400 100 l 1
 300 100 l 1
 300 50 l 1025
150 0 m 1
 150 50 l 1
 350 50 l 1
 350 0 l 1
 150 0 l 1
EndSplineSet
EndChar

StartChar: P
Encoding: 80 80 49
Width: 500
Flags: HW
LayerCount: 2
Back
Fore
SplineSet
50 600 m 1
 350 600 l 1
 350 650 l 1
 50 650 l 1
 50 600 l 1025
50 550 m 1
 150 550 l 1
 150 600 l 1
 50 600 l 1
 50 550 l 1025
300 550 m 1
 400 550 l 1
 400 600 l 1
 300 600 l 1
 300 550 l 1025
50 500 m 1
 150 500 l 1
 150 550 l 1
 50 550 l 1
 50 500 l 1025
350 500 m 1
 450 500 l 1
 450 550 l 1
 350 550 l 1
 350 500 l 1025
50 450 m 1
 150 450 l 1
 150 500 l 1
 50 500 l 1
 50 450 l 1025
350 450 m 1
 450 450 l 1
 450 500 l 1
 350 500 l 1
 350 450 l 1025
50 400 m 1
 150 400 l 1
 150 450 l 1
 50 450 l 1
 50 400 l 1025
350 400 m 1
 450 400 l 1
 450 450 l 1
 350 450 l 1
 350 400 l 1025
50 350 m 1
 150 350 l 1
 150 400 l 1
 50 400 l 1
 50 350 l 1025
350 350 m 1
 450 350 l 1
 450 400 l 1
 350 400 l 1
 350 350 l 1025
50 300 m 1
 150 300 l 1
 150 350 l 1
 50 350 l 1
 50 300 l 1025
300 300 m 1
 400 300 l 1
 400 350 l 1
 300 350 l 1
 300 300 l 1025
50 250 m 1
 350 250 l 1
 350 300 l 1
 50 300 l 1
 50 250 l 1025
50 200 m 1
 150 200 l 1
 150 250 l 1
 50 250 l 1
 50 200 l 1025
50 150 m 1
 150 150 l 1
 150 200 l 1
 50 200 l 1
 50 150 l 1025
50 100 m 1
 150 100 l 1
 150 150 l 1
 50 150 l 1
 50 100 l 1025
50 50 m 1
 150 50 l 1
 150 100 l 1
 50 100 l 1
 50 50 l 1025
50 0 m 1
 50 50 l 1
 150 50 l 1
 150 0 l 1
 50 0 l 1
EndSplineSet
EndChar

StartChar: Q
Encoding: 81 81 50
Width: 500
Flags: HW
LayerCount: 2
Back
Fore
SplineSet
150 600 m 1
 350 600 l 1
 350 650 l 1
 150 650 l 1
 150 600 l 1025
100 550 m 1
 200 550 l 1
 200 600 l 1
 100 600 l 1
 100 550 l 1025
300 550 m 1
 400 550 l 1
 400 600 l 1
 300 600 l 1
 300 550 l 1025
50 500 m 1
 150 500 l 1
 150 550 l 1
 50 550 l 1
 50 500 l 1025
350 500 m 1
 450 500 l 1
 450 550 l 1
 350 550 l 1
 350 500 l 1025
50 450 m 1
 150 450 l 1
 150 500 l 1
 50 500 l 1
 50 450 l 1025
350 450 m 1
 450 450 l 1
 450 500 l 1
 350 500 l 1
 350 450 l 1025
50 400 m 1
 150 400 l 1
 150 450 l 1
 50 450 l 1
 50 400 l 1025
350 400 m 1
 450 400 l 1
 450 450 l 1
 350 450 l 1
 350 400 l 1025
50 350 m 1
 150 350 l 1
 150 400 l 1
 50 400 l 1
 50 350 l 1025
350 350 m 1
 450 350 l 1
 450 400 l 1
 350 400 l 1
 350 350 l 1025
50 300 m 1
 150 300 l 1
 150 350 l 1
 50 350 l 1
 50 300 l 1025
350 300 m 1
 450 300 l 1
 450 350 l 1
 350 350 l 1
 350 300 l 1025
50 250 m 1
 150 250 l 1
 150 300 l 1
 50 300 l 1
 50 250 l 1025
350 250 m 1
 450 250 l 1
 450 300 l 1
 350 300 l 1
 350 250 l 1025
50 200 m 1
 150 200 l 1
 150 250 l 1
 50 250 l 1
 50 200 l 1025
350 200 m 1
 450 200 l 1
 450 250 l 1
 350 250 l 1
 350 200 l 1025
50 150 m 1
 150 150 l 1
 150 200 l 1
 50 200 l 1
 50 150 l 1025
200 150 m 1
 300 150 l 1
 300 200 l 1
 200 200 l 1
 200 150 l 1025
350 150 m 1
 450 150 l 1
 450 200 l 1
 350 200 l 1
 350 150 l 1025
50 100 m 1
 150 100 l 1
 150 150 l 1
 50 150 l 1
 50 100 l 1025
250 100 m 1
 450 100 l 1
 450 150 l 1
 250 150 l 1
 250 100 l 1025
100 50 m 1
 200 50 l 1
 200 100 l 1
 100 100 l 1
 100 50 l 1025
300 50 m 1
 400 50 l 1
 400 100 l 1
 300 100 l 1
 300 50 l 1025
150 0 m 1
 400 0 l 1
 400 50 l 1
 150 50 l 1
 150 0 l 1025
350 -50 m 1
 350 0 l 1
 450 0 l 1
 450 -50 l 1
 350 -50 l 1
EndSplineSet
EndChar

StartChar: R
Encoding: 82 82 51
Width: 500
Flags: HW
LayerCount: 2
Back
Fore
SplineSet
50 600 m 1
 350 600 l 1
 350 650 l 1
 50 650 l 1
 50 600 l 1025
50 550 m 1
 150 550 l 1
 150 600 l 1
 50 600 l 1
 50 550 l 1025
300 550 m 1
 400 550 l 1
 400 600 l 1
 300 600 l 1
 300 550 l 1025
50 500 m 1
 150 500 l 1
 150 550 l 1
 50 550 l 1
 50 500 l 1025
350 500 m 1
 450 500 l 1
 450 550 l 1
 350 550 l 1
 350 500 l 1025
50 450 m 1
 150 450 l 1
 150 500 l 1
 50 500 l 1
 50 450 l 1025
350 450 m 1
 450 450 l 1
 450 500 l 1
 350 500 l 1
 350 450 l 1025
50 400 m 1
 150 400 l 1
 150 450 l 1
 50 450 l 1
 50 400 l 1025
350 400 m 1
 450 400 l 1
 450 450 l 1
 350 450 l 1
 350 400 l 1025
50 350 m 1
 150 350 l 1
 150 400 l 1
 50 400 l 1
 50 350 l 1025
350 350 m 1
 450 350 l 1
 450 400 l 1
 350 400 l 1
 350 350 l 1025
50 300 m 1
 150 300 l 1
 150 350 l 1
 50 350 l 1
 50 300 l 1025
300 300 m 1
 400 300 l 1
 400 350 l 1
 300 350 l 1
 300 300 l 1025
50 250 m 1
 350 250 l 1
 350 300 l 1
 50 300 l 1
 50 250 l 1025
50 200 m 1
 150 200 l 1
 150 250 l 1
 50 250 l 1
 50 200 l 1025
250 200 m 1
 350 200 l 1
 350 250 l 1
 250 250 l 1
 250 200 l 1025
50 150 m 1
 150 150 l 1
 150 200 l 1
 50 200 l 1
 50 150 l 1025
300 150 m 1
 400 150 l 1
 400 200 l 1
 300 200 l 1
 300 150 l 1025
50 100 m 1
 150 100 l 1
 150 150 l 1
 50 150 l 1
 50 100 l 1025
300 100 m 1
 400 100 l 1
 400 150 l 1
 300 150 l 1
 300 100 l 1025
50 50 m 1
 150 50 l 1
 150 100 l 1
 50 100 l 1
 50 50 l 1025
350 50 m 1
 450 50 l 1
 450 100 l 1
 350 100 l 1
 350 50 l 1025
50 0 m 1
 150 0 l 1
 150 50 l 1
 50 50 l 1
 50 0 l 1025
350 0 m 1
 350 50 l 1
 450 50 l 1
 450 0 l 1
 350 0 l 1
EndSplineSet
EndChar

StartChar: S
Encoding: 83 83 52
Width: 500
Flags: HW
LayerCount: 2
Back
Fore
SplineSet
150 600 m 1
 350 600 l 1
 350 650 l 1
 150 650 l 1
 150 600 l 1025
100 550 m 1
 200 550 l 1
 200 600 l 1
 100 600 l 1
 100 550 l 1025
300 550 m 1
 400 550 l 1
 400 600 l 1
 300 600 l 1
 300 550 l 1025
50 500 m 1
 150 500 l 1
 150 550 l 1
 50 550 l 1
 50 500 l 1025
350 500 m 1
 450 500 l 1
 450 550 l 1
 350 550 l 1
 350 500 l 1025
50 450 m 1
 150 450 l 1
 150 500 l 1
 50 500 l 1
 50 450 l 1025
50 400 m 1
 150 400 l 1
 150 450 l 1
 50 450 l 1
 50 400 l 1025
100 350 m 1
 200 350 l 1
 200 400 l 1
 100 400 l 1
 100 350 l 1025
150 300 m 1
 350 300 l 1
 350 350 l 1
 150 350 l 1
 150 300 l 1025
300 250 m 1
 400 250 l 1
 400 300 l 1
 300 300 l 1
 300 250 l 1025
350 200 m 1
 450 200 l 1
 450 250 l 1
 350 250 l 1
 350 200 l 1025
350 150 m 1
 450 150 l 1
 450 200 l 1
 350 200 l 1
 350 150 l 1025
50 100 m 1
 150 100 l 1
 150 150 l 1
 50 150 l 1
 50 100 l 1025
350 100 m 1
 450 100 l 1
 450 150 l 1
 350 150 l 1
 350 100 l 1025
100 50 m 1
 200 50 l 1
 200 100 l 1
 100 100 l 1
 100 50 l 1025
300 50 m 1
 400 50 l 1
 400 100 l 1
 300 100 l 1
 300 50 l 1025
150 0 m 1
 150 50 l 1
 350 50 l 1
 350 0 l 1
 150 0 l 1
EndSplineSet
EndChar

StartChar: T
Encoding: 84 84 53
Width: 500
Flags: HW
LayerCount: 2
Back
Fore
SplineSet
50 600 m 1
 450 600 l 1
 450 650 l 1
 50 650 l 1
 50 600 l 1025
200 550 m 1
 300 550 l 1
 300 600 l 1
 200 600 l 1
 200 550 l 1025
200 500 m 1
 300 500 l 1
 300 550 l 1
 200 550 l 1
 200 500 l 1025
200 450 m 1
 300 450 l 1
 300 500 l 1
 200 500 l 1
 200 450 l 1025
200 400 m 1
 300 400 l 1
 300 450 l 1
 200 450 l 1
 200 400 l 1025
200 350 m 1
 300 350 l 1
 300 400 l 1
 200 400 l 1
 200 350 l 1025
200 300 m 1
 300 300 l 1
 300 350 l 1
 200 350 l 1
 200 300 l 1025
200 250 m 1
 300 250 l 1
 300 300 l 1
 200 300 l 1
 200 250 l 1025
200 200 m 1
 300 200 l 1
 300 250 l 1
 200 250 l 1
 200 200 l 1025
200 150 m 1
 300 150 l 1
 300 200 l 1
 200 200 l 1
 200 150 l 1025
200 100 m 1
 300 100 l 1
 300 150 l 1
 200 150 l 1
 200 100 l 1025
200 50 m 1
 300 50 l 1
 300 100 l 1
 200 100 l 1
 200 50 l 1025
200 0 m 1
 200 50 l 1
 300 50 l 1
 300 0 l 1
 200 0 l 1
EndSplineSet
EndChar

StartChar: U
Encoding: 85 85 54
Width: 500
Flags: HW
LayerCount: 2
Back
Fore
SplineSet
50 600 m 1
 150 600 l 1
 150 650 l 1
 50 650 l 1
 50 600 l 1025
350 600 m 1
 450 600 l 1
 450 650 l 1
 350 650 l 1
 350 600 l 1025
50 550 m 1
 150 550 l 1
 150 600 l 1
 50 600 l 1
 50 550 l 1025
350 550 m 1
 450 550 l 1
 450 600 l 1
 350 600 l 1
 350 550 l 1025
50 500 m 1
 150 500 l 1
 150 550 l 1
 50 550 l 1
 50 500 l 1025
350 500 m 1
 450 500 l 1
 450 550 l 1
 350 550 l 1
 350 500 l 1025
50 450 m 1
 150 450 l 1
 150 500 l 1
 50 500 l 1
 50 450 l 1025
350 450 m 1
 450 450 l 1
 450 500 l 1
 350 500 l 1
 350 450 l 1025
50 400 m 1
 150 400 l 1
 150 450 l 1
 50 450 l 1
 50 400 l 1025
350 400 m 1
 450 400 l 1
 450 450 l 1
 350 450 l 1
 350 400 l 1025
50 350 m 1
 150 350 l 1
 150 400 l 1
 50 400 l 1
 50 350 l 1025
350 350 m 1
 450 350 l 1
 450 400 l 1
 350 400 l 1
 350 350 l 1025
50 300 m 1
 150 300 l 1
 150 350 l 1
 50 350 l 1
 50 300 l 1025
350 300 m 1
 450 300 l 1
 450 350 l 1
 350 350 l 1
 350 300 l 1025
50 250 m 1
 150 250 l 1
 150 300 l 1
 50 300 l 1
 50 250 l 1025
350 250 m 1
 450 250 l 1
 450 300 l 1
 350 300 l 1
 350 250 l 1025
50 200 m 1
 150 200 l 1
 150 250 l 1
 50 250 l 1
 50 200 l 1025
350 200 m 1
 450 200 l 1
 450 250 l 1
 350 250 l 1
 350 200 l 1025
50 150 m 1
 150 150 l 1
 150 200 l 1
 50 200 l 1
 50 150 l 1025
350 150 m 1
 450 150 l 1
 450 200 l 1
 350 200 l 1
 350 150 l 1025
50 100 m 1
 150 100 l 1
 150 150 l 1
 50 150 l 1
 50 100 l 1025
350 100 m 1
 450 100 l 1
 450 150 l 1
 350 150 l 1
 350 100 l 1025
100 50 m 1
 200 50 l 1
 200 100 l 1
 100 100 l 1
 100 50 l 1025
300 50 m 1
 400 50 l 1
 400 100 l 1
 300 100 l 1
 300 50 l 1025
150 0 m 1
 150 50 l 1
 350 50 l 1
 350 0 l 1
 150 0 l 1
EndSplineSet
EndChar

StartChar: V
Encoding: 86 86 55
Width: 500
Flags: HW
LayerCount: 2
Back
Fore
SplineSet
50 600 m 1
 150 600 l 1
 150 650 l 1
 50 650 l 1
 50 600 l 1025
350 600 m 1
 450 600 l 1
 450 650 l 1
 350 650 l 1
 350 600 l 1025
50 550 m 1
 150 550 l 1
 150 600 l 1
 50 600 l 1
 50 550 l 1025
350 550 m 1
 450 550 l 1
 450 600 l 1
 350 600 l 1
 350 550 l 1025
50 500 m 1
 150 500 l 1
 150 550 l 1
 50 550 l 1
 50 500 l 1025
350 500 m 1
 450 500 l 1
 450 550 l 1
 350 550 l 1
 350 500 l 1025
50 450 m 1
 150 450 l 1
 150 500 l 1
 50 500 l 1
 50 450 l 1025
350 450 m 1
 450 450 l 1
 450 500 l 1
 350 500 l 1
 350 450 l 1025
100 400 m 1
 200 400 l 1
 200 450 l 1
 100 450 l 1
 100 400 l 1025
300 400 m 1
 400 400 l 1
 400 450 l 1
 300 450 l 1
 300 400 l 1025
100 350 m 1
 200 350 l 1
 200 400 l 1
 100 400 l 1
 100 350 l 1025
300 350 m 1
 400 350 l 1
 400 400 l 1
 300 400 l 1
 300 350 l 1025
100 300 m 1
 200 300 l 1
 200 350 l 1
 100 350 l 1
 100 300 l 1025
300 300 m 1
 400 300 l 1
 400 350 l 1
 300 350 l 1
 300 300 l 1025
150 250 m 1
 350 250 l 1
 350 300 l 1
 150 300 l 1
 150 250 l 1025
150 200 m 1
 350 200 l 1
 350 250 l 1
 150 250 l 1
 150 200 l 1025
150 150 m 1
 350 150 l 1
 350 200 l 1
 150 200 l 1
 150 150 l 1025
200 100 m 1
 300 100 l 1
 300 150 l 1
 200 150 l 1
 200 100 l 1025
200 50 m 1
 300 50 l 1
 300 100 l 1
 200 100 l 1
 200 50 l 1025
200 0 m 1
 200 50 l 1
 300 50 l 1
 300 0 l 1
 200 0 l 1
EndSplineSet
EndChar

StartChar: W
Encoding: 87 87 56
Width: 500
Flags: HW
LayerCount: 2
Back
Fore
SplineSet
50 600 m 1
 150 600 l 1
 150 650 l 1
 50 650 l 1
 50 600 l 1025
350 600 m 1
 450 600 l 1
 450 650 l 1
 350 650 l 1
 350 600 l 1025
50 550 m 1
 150 550 l 1
 150 600 l 1
 50 600 l 1
 50 550 l 1025
350 550 m 1
 450 550 l 1
 450 600 l 1
 350 600 l 1
 350 550 l 1025
50 500 m 1
 150 500 l 1
 150 550 l 1
 50 550 l 1
 50 500 l 1025
350 500 m 1
 450 500 l 1
 450 550 l 1
 350 550 l 1
 350 500 l 1025
50 450 m 1
 150 450 l 1
 150 500 l 1
 50 500 l 1
 50 450 l 1025
350 450 m 1
 450 450 l 1
 450 500 l 1
 350 500 l 1
 350 450 l 1025
50 400 m 1
 150 400 l 1
 150 450 l 1
 50 450 l 1
 50 400 l 1025
350 400 m 1
 450 400 l 1
 450 450 l 1
 350 450 l 1
 350 400 l 1025
50 350 m 1
 150 350 l 1
 150 400 l 1
 50 400 l 1
 50 350 l 1025
200 350 m 1
 300 350 l 1
 300 400 l 1
 200 400 l 1
 200 350 l 1025
350 350 m 1
 450 350 l 1
 450 400 l 1
 350 400 l 1
 350 350 l 1025
50 300 m 1
 150 300 l 1
 150 350 l 1
 50 350 l 1
 50 300 l 1025
200 300 m 1
 300 300 l 1
 300 350 l 1
 200 350 l 1
 200 300 l 1025
350 300 m 1
 450 300 l 1
 450 350 l 1
 350 350 l 1
 350 300 l 1025
50 250 m 1
 150 250 l 1
 150 300 l 1
 50 300 l 1
 50 250 l 1025
200 250 m 1
 300 250 l 1
 300 300 l 1
 200 300 l 1
 200 250 l 1025
350 250 m 1
 450 250 l 1
 450 300 l 1
 350 300 l 1
 350 250 l 1025
50 200 m 1
 150 200 l 1
 150 250 l 1
 50 250 l 1
 50 200 l 1025
200 200 m 1
 300 200 l 1
 300 250 l 1
 200 250 l 1
 200 200 l 1025
350 200 m 1
 450 200 l 1
 450 250 l 1
 350 250 l 1
 350 200 l 1025
50 150 m 1
 200 150 l 1
 200 200 l 1
 50 200 l 1
 50 150 l 1025
300 150 m 1
 450 150 l 1
 450 200 l 1
 300 200 l 1
 300 150 l 1025
50 100 m 1
 200 100 l 1
 200 150 l 1
 50 150 l 1
 50 100 l 1025
300 100 m 1
 450 100 l 1
 450 150 l 1
 300 150 l 1
 300 100 l 1025
50 50 m 1
 150 50 l 1
 150 100 l 1
 50 100 l 1
 50 50 l 1025
350 50 m 1
 450 50 l 1
 450 100 l 1
 350 100 l 1
 350 50 l 1025
50 0 m 1
 150 0 l 1
 150 50 l 1
 50 50 l 1
 50 0 l 1025
350 0 m 1
 350 50 l 1
 450 50 l 1
 450 0 l 1
 350 0 l 1
EndSplineSet
EndChar

StartChar: X
Encoding: 88 88 57
Width: 500
Flags: HW
LayerCount: 2
Back
Fore
SplineSet
50 600 m 1
 150 600 l 1
 150 650 l 1
 50 650 l 1
 50 600 l 1025
350 600 m 1
 450 600 l 1
 450 650 l 1
 350 650 l 1
 350 600 l 1025
50 550 m 1
 150 550 l 1
 150 600 l 1
 50 600 l 1
 50 550 l 1025
350 550 m 1
 450 550 l 1
 450 600 l 1
 350 600 l 1
 350 550 l 1025
100 500 m 1
 200 500 l 1
 200 550 l 1
 100 550 l 1
 100 500 l 1025
300 500 m 1
 400 500 l 1
 400 550 l 1
 300 550 l 1
 300 500 l 1025
100 450 m 1
 200 450 l 1
 200 500 l 1
 100 500 l 1
 100 450 l 1025
300 450 m 1
 400 450 l 1
 400 500 l 1
 300 500 l 1
 300 450 l 1025
150 400 m 1
 350 400 l 1
 350 450 l 1
 150 450 l 1
 150 400 l 1025
150 350 m 1
 350 350 l 1
 350 400 l 1
 150 400 l 1
 150 350 l 1025
200 300 m 1
 300 300 l 1
 300 350 l 1
 200 350 l 1
 200 300 l 1025
150 250 m 1
 350 250 l 1
 350 300 l 1
 150 300 l 1
 150 250 l 1025
150 200 m 1
 350 200 l 1
 350 250 l 1
 150 250 l 1
 150 200 l 1025
100 150 m 1
 200 150 l 1
 200 200 l 1
 100 200 l 1
 100 150 l 1025
300 150 m 1
 400 150 l 1
 400 200 l 1
 300 200 l 1
 300 150 l 1025
100 100 m 1
 200 100 l 1
 200 150 l 1
 100 150 l 1
 100 100 l 1025
300 100 m 1
 400 100 l 1
 400 150 l 1
 300 150 l 1
 300 100 l 1025
50 50 m 1
 150 50 l 1
 150 100 l 1
 50 100 l 1
 50 50 l 1025
350 50 m 1
 450 50 l 1
 450 100 l 1
 350 100 l 1
 350 50 l 1025
50 0 m 1
 150 0 l 1
 150 50 l 1
 50 50 l 1
 50 0 l 1025
350 0 m 1
 350 50 l 1
 450 50 l 1
 450 0 l 1
 350 0 l 1
EndSplineSet
EndChar

StartChar: Y
Encoding: 89 89 58
Width: 500
Flags: HW
LayerCount: 2
Back
Fore
SplineSet
50 600 m 1
 150 600 l 1
 150 650 l 1
 50 650 l 1
 50 600 l 1025
350 600 m 1
 450 600 l 1
 450 650 l 1
 350 650 l 1
 350 600 l 1025
50 550 m 1
 150 550 l 1
 150 600 l 1
 50 600 l 1
 50 550 l 1025
350 550 m 1
 450 550 l 1
 450 600 l 1
 350 600 l 1
 350 550 l 1025
100 500 m 1
 200 500 l 1
 200 550 l 1
 100 550 l 1
 100 500 l 1025
300 500 m 1
 400 500 l 1
 400 550 l 1
 300 550 l 1
 300 500 l 1025
100 450 m 1
 200 450 l 1
 200 500 l 1
 100 500 l 1
 100 450 l 1025
300 450 m 1
 400 450 l 1
 400 500 l 1
 300 500 l 1
 300 450 l 1025
150 400 m 1
 350 400 l 1
 350 450 l 1
 150 450 l 1
 150 400 l 1025
150 350 m 1
 350 350 l 1
 350 400 l 1
 150 400 l 1
 150 350 l 1025
200 300 m 1
 300 300 l 1
 300 350 l 1
 200 350 l 1
 200 300 l 1025
200 250 m 1
 300 250 l 1
 300 300 l 1
 200 300 l 1
 200 250 l 1025
200 200 m 1
 300 200 l 1
 300 250 l 1
 200 250 l 1
 200 200 l 1025
200 150 m 1
 300 150 l 1
 300 200 l 1
 200 200 l 1
 200 150 l 1025
200 100 m 1
 300 100 l 1
 300 150 l 1
 200 150 l 1
 200 100 l 1025
200 50 m 1
 300 50 l 1
 300 100 l 1
 200 100 l 1
 200 50 l 1025
200 0 m 1
 200 50 l 1
 300 50 l 1
 300 0 l 1
 200 0 l 1
EndSplineSet
EndChar

StartChar: Z
Encoding: 90 90 59
Width: 500
Flags: HW
LayerCount: 2
Back
Fore
SplineSet
50 600 m 1
 450 600 l 1
 450 650 l 1
 50 650 l 1
 50 600 l 1025
350 550 m 1
 450 550 l 1
 450 600 l 1
 350 600 l 1
 350 550 l 1025
350 500 m 1
 450 500 l 1
 450 550 l 1
 350 550 l 1
 350 500 l 1025
300 450 m 1
 400 450 l 1
 400 500 l 1
 300 500 l 1
 300 450 l 1025
250 400 m 1
 350 400 l 1
 350 450 l 1
 250 450 l 1
 250 400 l 1025
250 350 m 1
 350 350 l 1
 350 400 l 1
 250 400 l 1
 250 350 l 1025
200 300 m 1
 300 300 l 1
 300 350 l 1
 200 350 l 1
 200 300 l 1025
150 250 m 1
 250 250 l 1
 250 300 l 1
 150 300 l 1
 150 250 l 1025
150 200 m 1
 250 200 l 1
 250 250 l 1
 150 250 l 1
 150 200 l 1025
100 150 m 1
 200 150 l 1
 200 200 l 1
 100 200 l 1
 100 150 l 1025
50 100 m 1
 150 100 l 1
 150 150 l 1
 50 150 l 1
 50 100 l 1025
50 50 m 1
 150 50 l 1
 150 100 l 1
 50 100 l 1
 50 50 l 1025
50 0 m 1
 50 50 l 1
 450 50 l 1
 450 0 l 1
 50 0 l 1
EndSplineSet
EndChar

StartChar: bracketleft
Encoding: 91 91 60
Width: 500
Flags: HW
LayerCount: 2
Back
Fore
SplineSet
100 600 m 1
 400 600 l 1
 400 650 l 1
 100 650 l 1
 100 600 l 1025
100 550 m 1
 200 550 l 1
 200 600 l 1
 100 600 l 1
 100 550 l 1025
100 500 m 1
 200 500 l 1
 200 550 l 1
 100 550 l 1
 100 500 l 1025
100 450 m 1
 200 450 l 1
 200 500 l 1
 100 500 l 1
 100 450 l 1025
100 400 m 1
 200 400 l 1
 200 450 l 1
 100 450 l 1
 100 400 l 1025
100 350 m 1
 200 350 l 1
 200 400 l 1
 100 400 l 1
 100 350 l 1025
100 300 m 1
 200 300 l 1
 200 350 l 1
 100 350 l 1
 100 300 l 1025
100 250 m 1
 200 250 l 1
 200 300 l 1
 100 300 l 1
 100 250 l 1025
100 200 m 1
 200 200 l 1
 200 250 l 1
 100 250 l 1
 100 200 l 1025
100 150 m 1
 200 150 l 1
 200 200 l 1
 100 200 l 1
 100 150 l 1025
100 100 m 1
 200 100 l 1
 200 150 l 1
 100 150 l 1
 100 100 l 1025
100 50 m 1
 200 50 l 1
 200 100 l 1
 100 100 l 1
 100 50 l 1025
100 0 m 1
 100 50 l 1
 400 50 l 1
 400 0 l 1
 100 0 l 1
EndSplineSet
EndChar

StartChar: backslash
Encoding: 92 92 61
Width: 500
Flags: HW
LayerCount: 2
Back
Fore
SplineSet
100 550 m 1
 200 550 l 1
 200 600 l 1
 100 600 l 1
 100 550 l 1025
100 500 m 1
 200 500 l 1
 200 550 l 1
 100 550 l 1
 100 500 l 1025
150 450 m 1
 250 450 l 1
 250 500 l 1
 150 500 l 1
 150 450 l 1025
150 400 m 1
 250 400 l 1
 250 450 l 1
 150 450 l 1
 150 400 l 1025
200 350 m 1
 300 350 l 1
 300 400 l 1
 200 400 l 1
 200 350 l 1025
200 300 m 1
 300 300 l 1
 300 350 l 1
 200 350 l 1
 200 300 l 1025
250 250 m 1
 350 250 l 1
 350 300 l 1
 250 300 l 1
 250 250 l 1025
250 200 m 1
 350 200 l 1
 350 250 l 1
 250 250 l 1
 250 200 l 1025
300 150 m 1
 400 150 l 1
 400 200 l 1
 300 200 l 1
 300 150 l 1025
300 100 m 1
 400 100 l 1
 400 150 l 1
 300 150 l 1
 300 100 l 1025
350 50 m 1
 450 50 l 1
 450 100 l 1
 350 100 l 1
 350 50 l 1025
350 0 m 1
 350 50 l 1
 450 50 l 1
 450 0 l 1
 350 0 l 1
EndSplineSet
EndChar

StartChar: bracketright
Encoding: 93 93 62
Width: 500
Flags: HW
LayerCount: 2
Back
Fore
SplineSet
100 600 m 1
 400 600 l 1
 400 650 l 1
 100 650 l 1
 100 600 l 1025
300 550 m 1
 400 550 l 1
 400 600 l 1
 300 600 l 1
 300 550 l 1025
300 500 m 1
 400 500 l 1
 400 550 l 1
 300 550 l 1
 300 500 l 1025
300 450 m 1
 400 450 l 1
 400 500 l 1
 300 500 l 1
 300 450 l 1025
300 400 m 1
 400 400 l 1
 400 450 l 1
 300 450 l 1
 300 400 l 1025
300 350 m 1
 400 350 l 1
 400 400 l 1
 300 400 l 1
 300 350 l 1025
300 300 m 1
 400 300 l 1
 400 350 l 1
 300 350 l 1
 300 300 l 1025
300 250 m 1
 400 250 l 1
 400 300 l 1
 300 300 l 1
 300 250 l 1025
300 200 m 1
 400 200 l 1
 400 250 l 1
 300 250 l 1
 300 200 l 1025
300 150 m 1
 400 150 l 1
 400 200 l 1
 300 200 l 1
 300 150 l 1025
300 100 m 1
 400 100 l 1
 400 150 l 1
 300 150 l 1
 300 100 l 1025
300 50 m 1
 400 50 l 1
 400 100 l 1
 300 100 l 1
 300 50 l 1025
100 0 m 1
 100 50 l 1
 400 50 l 1
 400 0 l 1
 100 0 l 1
EndSplineSet
EndChar

StartChar: asciicircum
Encoding: 94 94 63
Width: 500
Flags: HW
LayerCount: 2
Back
Fore
SplineSet
200 600 m 1
 300 600 l 1
 300 650 l 1
 200 650 l 1
 200 600 l 1025
150 550 m 1
 350 550 l 1
 350 600 l 1
 150 600 l 1
 150 550 l 1025
100 500 m 1
 200 500 l 1
 200 550 l 1
 100 550 l 1
 100 500 l 1025
300 500 m 1
 400 500 l 1
 400 550 l 1
 300 550 l 1
 300 500 l 1025
50 450 m 1
 150 450 l 1
 150 500 l 1
 50 500 l 1
 50 450 l 1025
350 450 m 1
 350 500 l 1
 450 500 l 1
 450 450 l 1
 350 450 l 1
EndSplineSet
EndChar

StartChar: underscore
Encoding: 95 95 64
Width: 500
Flags: HW
LayerCount: 2
Back
Fore
SplineSet
50 -50 m 1
 50 0 l 1
 500 0 l 1
 500 -50 l 1
 50 -50 l 1
EndSplineSet
EndChar

StartChar: grave
Encoding: 96 96 65
Width: 500
Flags: HW
LayerCount: 2
Back
Fore
SplineSet
150 600 m 1
 250 600 l 1
 250 650 l 1
 150 650 l 1
 150 600 l 1025
200 550 m 1
 300 550 l 1
 300 600 l 1
 200 600 l 1
 200 550 l 1025
250 500 m 1
 250 550 l 1
 350 550 l 1
 350 500 l 1
 250 500 l 1
EndSplineSet
EndChar

StartChar: a
Encoding: 97 97 66
Width: 500
Flags: HW
LayerCount: 2
Back
Fore
SplineSet
150 350 m 1
 400 350 l 1
 400 400 l 1
 150 400 l 1
 150 350 l 1025
100 300 m 1
 200 300 l 1
 200 350 l 1
 100 350 l 1
 100 300 l 1025
350 300 m 1
 450 300 l 1
 450 350 l 1
 350 350 l 1
 350 300 l 1025
350 250 m 1
 450 250 l 1
 450 300 l 1
 350 300 l 1
 350 250 l 1025
100 200 m 1
 450 200 l 1
 450 250 l 1
 100 250 l 1
 100 200 l 1025
50 150 m 1
 150 150 l 1
 150 200 l 1
 50 200 l 1
 50 150 l 1025
350 150 m 1
 450 150 l 1
 450 200 l 1
 350 200 l 1
 350 150 l 1025
50 100 m 1
 150 100 l 1
 150 150 l 1
 50 150 l 1
 50 100 l 1025
350 100 m 1
 450 100 l 1
 450 150 l 1
 350 150 l 1
 350 100 l 1025
50 50 m 1
 150 50 l 1
 150 100 l 1
 50 100 l 1
 50 50 l 1025
350 50 m 1
 450 50 l 1
 450 100 l 1
 350 100 l 1
 350 50 l 1025
100 0 m 1
 350 0 l 1
 350 50 l 1
 100 50 l 1
 100 0 l 1025
400 0 m 1
 400 50 l 1
 450 50 l 1
 450 0 l 1
 400 0 l 1
EndSplineSet
EndChar

StartChar: b
Encoding: 98 98 67
Width: 500
Flags: HW
LayerCount: 2
Back
Fore
SplineSet
50 600 m 1
 150 600 l 1
 150 650 l 1
 50 650 l 1
 50 600 l 1025
50 550 m 1
 150 550 l 1
 150 600 l 1
 50 600 l 1
 50 550 l 1025
50 500 m 1
 150 500 l 1
 150 550 l 1
 50 550 l 1
 50 500 l 1025
50 450 m 1
 150 450 l 1
 150 500 l 1
 50 500 l 1
 50 450 l 1025
50 400 m 1
 150 400 l 1
 150 450 l 1
 50 450 l 1
 50 400 l 1025
50 350 m 1
 150 350 l 1
 150 400 l 1
 50 400 l 1
 50 350 l 1025
200 350 m 1
 350 350 l 1
 350 400 l 1
 200 400 l 1
 200 350 l 1025
50 300 m 1
 200 300 l 1
 200 350 l 1
 50 350 l 1
 50 300 l 1025
300 300 m 1
 400 300 l 1
 400 350 l 1
 300 350 l 1
 300 300 l 1025
50 250 m 1
 150 250 l 1
 150 300 l 1
 50 300 l 1
 50 250 l 1025
350 250 m 1
 450 250 l 1
 450 300 l 1
 350 300 l 1
 350 250 l 1025
50 200 m 1
 150 200 l 1
 150 250 l 1
 50 250 l 1
 50 200 l 1025
350 200 m 1
 450 200 l 1
 450 250 l 1
 350 250 l 1
 350 200 l 1025
50 150 m 1
 150 150 l 1
 150 200 l 1
 50 200 l 1
 50 150 l 1025
350 150 m 1
 450 150 l 1
 450 200 l 1
 350 200 l 1
 350 150 l 1025
50 100 m 1
 150 100 l 1
 150 150 l 1
 50 150 l 1
 50 100 l 1025
350 100 m 1
 450 100 l 1
 450 150 l 1
 350 150 l 1
 350 100 l 1025
50 50 m 1
 200 50 l 1
 200 100 l 1
 50 100 l 1
 50 50 l 1025
300 50 m 1
 400 50 l 1
 400 100 l 1
 300 100 l 1
 300 50 l 1025
50 0 m 1
 150 0 l 1
 150 50 l 1
 50 50 l 1
 50 0 l 1025
200 0 m 1
 200 50 l 1
 350 50 l 1
 350 0 l 1
 200 0 l 1
EndSplineSet
EndChar

StartChar: c
Encoding: 99 99 68
Width: 500
Flags: HW
LayerCount: 2
Back
Fore
SplineSet
150 350 m 1
 400 350 l 1
 400 400 l 1
 150 400 l 1
 150 350 l 1025
100 300 m 1
 200 300 l 1
 200 350 l 1
 100 350 l 1
 100 300 l 1025
350 300 m 1
 450 300 l 1
 450 350 l 1
 350 350 l 1
 350 300 l 1025
50 250 m 1
 150 250 l 1
 150 300 l 1
 50 300 l 1
 50 250 l 1025
50 200 m 1
 150 200 l 1
 150 250 l 1
 50 250 l 1
 50 200 l 1025
50 150 m 1
 150 150 l 1
 150 200 l 1
 50 200 l 1
 50 150 l 1025
50 100 m 1
 150 100 l 1
 150 150 l 1
 50 150 l 1
 50 100 l 1025
100 50 m 1
 200 50 l 1
 200 100 l 1
 100 100 l 1
 100 50 l 1025
350 50 m 1
 450 50 l 1
 450 100 l 1
 350 100 l 1
 350 50 l 1025
150 0 m 1
 150 50 l 1
 400 50 l 1
 400 0 l 1
 150 0 l 1
EndSplineSet
EndChar

StartChar: d
Encoding: 100 100 69
Width: 500
Flags: HW
LayerCount: 2
Back
Fore
SplineSet
350 600 m 1
 450 600 l 1
 450 650 l 1
 350 650 l 1
 350 600 l 1025
350 550 m 1
 450 550 l 1
 450 600 l 1
 350 600 l 1
 350 550 l 1025
350 500 m 1
 450 500 l 1
 450 550 l 1
 350 550 l 1
 350 500 l 1025
350 450 m 1
 450 450 l 1
 450 500 l 1
 350 500 l 1
 350 450 l 1025
350 400 m 1
 450 400 l 1
 450 450 l 1
 350 450 l 1
 350 400 l 1025
150 350 m 1
 300 350 l 1
 300 400 l 1
 150 400 l 1
 150 350 l 1025
350 350 m 1
 450 350 l 1
 450 400 l 1
 350 400 l 1
 350 350 l 1025
100 300 m 1
 200 300 l 1
 200 350 l 1
 100 350 l 1
 100 300 l 1025
300 300 m 1
 450 300 l 1
 450 350 l 1
 300 350 l 1
 300 300 l 1025
50 250 m 1
 150 250 l 1
 150 300 l 1
 50 300 l 1
 50 250 l 1025
350 250 m 1
 450 250 l 1
 450 300 l 1
 350 300 l 1
 350 250 l 1025
50 200 m 1
 150 200 l 1
 150 250 l 1
 50 250 l 1
 50 200 l 1025
350 200 m 1
 450 200 l 1
 450 250 l 1
 350 250 l 1
 350 200 l 1025
50 150 m 1
 150 150 l 1
 150 200 l 1
 50 200 l 1
 50 150 l 1025
350 150 m 1
 450 150 l 1
 450 200 l 1
 350 200 l 1
 350 150 l 1025
50 100 m 1
 150 100 l 1
 150 150 l 1
 50 150 l 1
 50 100 l 1025
350 100 m 1
 450 100 l 1
 450 150 l 1
 350 150 l 1
 350 100 l 1025
100 50 m 1
 200 50 l 1
 200 100 l 1
 100 100 l 1
 100 50 l 1025
300 50 m 1
 450 50 l 1
 450 100 l 1
 300 100 l 1
 300 50 l 1025
150 0 m 1
 300 0 l 1
 300 50 l 1
 150 50 l 1
 150 0 l 1025
350 0 m 1
 350 50 l 1
 450 50 l 1
 450 0 l 1
 350 0 l 1
EndSplineSet
EndChar

StartChar: e
Encoding: 101 101 70
Width: 500
Flags: HW
LayerCount: 2
Back
Fore
SplineSet
150 350 m 1
 350 350 l 1
 350 400 l 1
 150 400 l 1
 150 350 l 1025
100 300 m 1
 200 300 l 1
 200 350 l 1
 100 350 l 1
 100 300 l 1025
300 300 m 1
 400 300 l 1
 400 350 l 1
 300 350 l 1
 300 300 l 1025
50 250 m 1
 150 250 l 1
 150 300 l 1
 50 300 l 1
 50 250 l 1025
350 250 m 1
 450 250 l 1
 450 300 l 1
 350 300 l 1
 350 250 l 1025
50 200 m 1
 450 200 l 1
 450 250 l 1
 50 250 l 1
 50 200 l 1025
50 150 m 1
 150 150 l 1
 150 200 l 1
 50 200 l 1
 50 150 l 1025
50 100 m 1
 150 100 l 1
 150 150 l 1
 50 150 l 1
 50 100 l 1025
100 50 m 1
 200 50 l 1
 200 100 l 1
 100 100 l 1
 100 50 l 1025
350 50 m 1
 450 50 l 1
 450 100 l 1
 350 100 l 1
 350 50 l 1025
150 0 m 1
 150 50 l 1
 400 50 l 1
 400 0 l 1
 150 0 l 1
EndSplineSet
EndChar

StartChar: f
Encoding: 102 102 71
Width: 500
Flags: HW
LayerCount: 2
Back
Fore
SplineSet
200 600 m 1
 400 600 l 1
 400 650 l 1
 200 650 l 1
 200 600 l 1025
150 550 m 1
 250 550 l 1
 250 600 l 1
 150 600 l 1
 150 550 l 1025
350 550 m 1
 450 550 l 1
 450 600 l 1
 350 600 l 1
 350 550 l 1025
150 500 m 1
 250 500 l 1
 250 550 l 1
 150 550 l 1
 150 500 l 1025
350 500 m 1
 450 500 l 1
 450 550 l 1
 350 550 l 1
 350 500 l 1025
150 450 m 1
 250 450 l 1
 250 500 l 1
 150 500 l 1
 150 450 l 1025
150 400 m 1
 250 400 l 1
 250 450 l 1
 150 450 l 1
 150 400 l 1025
50 350 m 1
 350 350 l 1
 350 400 l 1
 50 400 l 1
 50 350 l 1025
150 300 m 1
 250 300 l 1
 250 350 l 1
 150 350 l 1
 150 300 l 1025
150 250 m 1
 250 250 l 1
 250 300 l 1
 150 300 l 1
 150 250 l 1025
150 200 m 1
 250 200 l 1
 250 250 l 1
 150 250 l 1
 150 200 l 1025
150 150 m 1
 250 150 l 1
 250 200 l 1
 150 200 l 1
 150 150 l 1025
150 100 m 1
 250 100 l 1
 250 150 l 1
 150 150 l 1
 150 100 l 1025
150 50 m 1
 250 50 l 1
 250 100 l 1
 150 100 l 1
 150 50 l 1025
150 0 m 1
 150 50 l 1
 250 50 l 1
 250 0 l 1
 150 0 l 1
EndSplineSet
EndChar

StartChar: g
Encoding: 103 103 72
Width: 500
Flags: HW
LayerCount: 2
Back
Fore
SplineSet
100 350 m 1
 350 350 l 1
 350 400 l 1
 100 400 l 1
 100 350 l 1025
400 350 m 1
 450 350 l 1
 450 400 l 1
 400 400 l 1
 400 350 l 1025
50 300 m 1
 150 300 l 1
 150 350 l 1
 50 350 l 1
 50 300 l 1025
300 300 m 1
 450 300 l 1
 450 350 l 1
 300 350 l 1
 300 300 l 1025
50 250 m 1
 150 250 l 1
 150 300 l 1
 50 300 l 1
 50 250 l 1025
300 250 m 1
 400 250 l 1
 400 300 l 1
 300 300 l 1
 300 250 l 1025
50 200 m 1
 150 200 l 1
 150 250 l 1
 50 250 l 1
 50 200 l 1025
300 200 m 1
 400 200 l 1
 400 250 l 1
 300 250 l 1
 300 200 l 1025
50 150 m 1
 150 150 l 1
 150 200 l 1
 50 200 l 1
 50 150 l 1025
300 150 m 1
 400 150 l 1
 400 200 l 1
 300 200 l 1
 300 150 l 1025
100 100 m 1
 350 100 l 1
 350 150 l 1
 100 150 l 1
 100 100 l 1025
50 50 m 1
 150 50 l 1
 150 100 l 1
 50 100 l 1
 50 50 l 1025
100 0 m 1
 400 0 l 1
 400 50 l 1
 100 50 l 1
 100 0 l 1025
50 -50 m 1
 150 -50 l 1
 150 0 l 1
 50 0 l 1
 50 -50 l 1025
350 -50 m 1
 450 -50 l 1
 450 0 l 1
 350 0 l 1
 350 -50 l 1025
50 -100 m 1
 150 -100 l 1
 150 -50 l 1
 50 -50 l 1
 50 -100 l 1025
350 -100 m 1
 450 -100 l 1
 450 -50 l 1
 350 -50 l 1
 350 -100 l 1025
50 -150 m 1
 150 -150 l 1
 150 -100 l 1
 50 -100 l 1
 50 -150 l 1025
350 -150 m 1
 450 -150 l 1
 450 -100 l 1
 350 -100 l 1
 350 -150 l 1025
100 -200 m 1
 100 -150 l 1
 400 -150 l 1
 400 -200 l 1
 100 -200 l 1
EndSplineSet
EndChar

StartChar: h
Encoding: 104 104 73
Width: 500
Flags: HW
LayerCount: 2
Back
Fore
SplineSet
50 600 m 1
 150 600 l 1
 150 650 l 1
 50 650 l 1
 50 600 l 1025
50 550 m 1
 150 550 l 1
 150 600 l 1
 50 600 l 1
 50 550 l 1025
50 500 m 1
 150 500 l 1
 150 550 l 1
 50 550 l 1
 50 500 l 1025
50 450 m 1
 150 450 l 1
 150 500 l 1
 50 500 l 1
 50 450 l 1025
50 400 m 1
 150 400 l 1
 150 450 l 1
 50 450 l 1
 50 400 l 1025
50 350 m 1
 150 350 l 1
 150 400 l 1
 50 400 l 1
 50 350 l 1025
200 350 m 1
 350 350 l 1
 350 400 l 1
 200 400 l 1
 200 350 l 1025
50 300 m 1
 200 300 l 1
 200 350 l 1
 50 350 l 1
 50 300 l 1025
300 300 m 1
 400 300 l 1
 400 350 l 1
 300 350 l 1
 300 300 l 1025
50 250 m 1
 150 250 l 1
 150 300 l 1
 50 300 l 1
 50 250 l 1025
350 250 m 1
 450 250 l 1
 450 300 l 1
 350 300 l 1
 350 250 l 1025
50 200 m 1
 150 200 l 1
 150 250 l 1
 50 250 l 1
 50 200 l 1025
350 200 m 1
 450 200 l 1
 450 250 l 1
 350 250 l 1
 350 200 l 1025
50 150 m 1
 150 150 l 1
 150 200 l 1
 50 200 l 1
 50 150 l 1025
350 150 m 1
 450 150 l 1
 450 200 l 1
 350 200 l 1
 350 150 l 1025
50 100 m 1
 150 100 l 1
 150 150 l 1
 50 150 l 1
 50 100 l 1025
350 100 m 1
 450 100 l 1
 450 150 l 1
 350 150 l 1
 350 100 l 1025
50 50 m 1
 150 50 l 1
 150 100 l 1
 50 100 l 1
 50 50 l 1025
350 50 m 1
 450 50 l 1
 450 100 l 1
 350 100 l 1
 350 50 l 1025
50 0 m 1
 150 0 l 1
 150 50 l 1
 50 50 l 1
 50 0 l 1025
350 0 m 1
 350 50 l 1
 450 50 l 1
 450 0 l 1
 350 0 l 1
EndSplineSet
EndChar

StartChar: i
Encoding: 105 105 74
Width: 500
Flags: HW
LayerCount: 2
Back
Fore
SplineSet
200 500 m 1
 300 500 l 1
 300 550 l 1
 200 550 l 1
 200 500 l 1025
200 450 m 1
 300 450 l 1
 300 500 l 1
 200 500 l 1
 200 450 l 1025
100 350 m 1
 300 350 l 1
 300 400 l 1
 100 400 l 1
 100 350 l 1025
200 300 m 1
 300 300 l 1
 300 350 l 1
 200 350 l 1
 200 300 l 1025
200 250 m 1
 300 250 l 1
 300 300 l 1
 200 300 l 1
 200 250 l 1025
200 200 m 1
 300 200 l 1
 300 250 l 1
 200 250 l 1
 200 200 l 1025
200 150 m 1
 300 150 l 1
 300 200 l 1
 200 200 l 1
 200 150 l 1025
200 100 m 1
 300 100 l 1
 300 150 l 1
 200 150 l 1
 200 100 l 1025
200 50 m 1
 300 50 l 1
 300 100 l 1
 200 100 l 1
 200 50 l 1025
50 0 m 1
 50 50 l 1
 450 50 l 1
 450 0 l 1
 50 0 l 1
EndSplineSet
EndChar

StartChar: j
Encoding: 106 106 75
Width: 500
Flags: HW
LayerCount: 2
Back
Fore
SplineSet
350 500 m 1
 450 500 l 1
 450 550 l 1
 350 550 l 1
 350 500 l 1025
350 450 m 1
 450 450 l 1
 450 500 l 1
 350 500 l 1
 350 450 l 1025
250 350 m 1
 450 350 l 1
 450 400 l 1
 250 400 l 1
 250 350 l 1025
350 300 m 1
 450 300 l 1
 450 350 l 1
 350 350 l 1
 350 300 l 1025
350 250 m 1
 450 250 l 1
 450 300 l 1
 350 300 l 1
 350 250 l 1025
350 200 m 1
 450 200 l 1
 450 250 l 1
 350 250 l 1
 350 200 l 1025
350 150 m 1
 450 150 l 1
 450 200 l 1
 350 200 l 1
 350 150 l 1025
350 100 m 1
 450 100 l 1
 450 150 l 1
 350 150 l 1
 350 100 l 1025
350 50 m 1
 450 50 l 1
 450 100 l 1
 350 100 l 1
 350 50 l 1025
350 0 m 1
 450 0 l 1
 450 50 l 1
 350 50 l 1
 350 0 l 1025
100 -50 m 1
 200 -50 l 1
 200 0 l 1
 100 0 l 1
 100 -50 l 1025
350 -50 m 1
 450 -50 l 1
 450 0 l 1
 350 0 l 1
 350 -50 l 1025
100 -100 m 1
 200 -100 l 1
 200 -50 l 1
 100 -50 l 1
 100 -100 l 1025
350 -100 m 1
 450 -100 l 1
 450 -50 l 1
 350 -50 l 1
 350 -100 l 1025
100 -150 m 1
 200 -150 l 1
 200 -100 l 1
 100 -100 l 1
 100 -150 l 1025
350 -150 m 1
 450 -150 l 1
 450 -100 l 1
 350 -100 l 1
 350 -150 l 1025
150 -200 m 1
 150 -150 l 1
 400 -150 l 1
 400 -200 l 1
 150 -200 l 1
EndSplineSet
EndChar

StartChar: k
Encoding: 107 107 76
Width: 500
Flags: HW
LayerCount: 2
Back
Fore
SplineSet
50 600 m 1
 150 600 l 1
 150 650 l 1
 50 650 l 1
 50 600 l 1025
50 550 m 1
 150 550 l 1
 150 600 l 1
 50 600 l 1
 50 550 l 1025
50 500 m 1
 150 500 l 1
 150 550 l 1
 50 550 l 1
 50 500 l 1025
50 450 m 1
 150 450 l 1
 150 500 l 1
 50 500 l 1
 50 450 l 1025
50 400 m 1
 150 400 l 1
 150 450 l 1
 50 450 l 1
 50 400 l 1025
50 350 m 1
 150 350 l 1
 150 400 l 1
 50 400 l 1
 50 350 l 1025
300 350 m 1
 400 350 l 1
 400 400 l 1
 300 400 l 1
 300 350 l 1025
50 300 m 1
 150 300 l 1
 150 350 l 1
 50 350 l 1
 50 300 l 1025
250 300 m 1
 350 300 l 1
 350 350 l 1
 250 350 l 1
 250 300 l 1025
50 250 m 1
 150 250 l 1
 150 300 l 1
 50 300 l 1
 50 250 l 1025
200 250 m 1
 300 250 l 1
 300 300 l 1
 200 300 l 1
 200 250 l 1025
50 200 m 1
 250 200 l 1
 250 250 l 1
 50 250 l 1
 50 200 l 1025
50 150 m 1
 300 150 l 1
 300 200 l 1
 50 200 l 1
 50 150 l 1025
50 100 m 1
 150 100 l 1
 150 150 l 1
 50 150 l 1
 50 100 l 1025
250 100 m 1
 350 100 l 1
 350 150 l 1
 250 150 l 1
 250 100 l 1025
50 50 m 1
 150 50 l 1
 150 100 l 1
 50 100 l 1
 50 50 l 1025
300 50 m 1
 400 50 l 1
 400 100 l 1
 300 100 l 1
 300 50 l 1025
50 0 m 1
 150 0 l 1
 150 50 l 1
 50 50 l 1
 50 0 l 1025
350 0 m 1
 350 50 l 1
 450 50 l 1
 450 0 l 1
 350 0 l 1
EndSplineSet
EndChar

StartChar: l
Encoding: 108 108 77
Width: 500
Flags: HW
LayerCount: 2
Back
Fore
SplineSet
100 600 m 1
 300 600 l 1
 300 650 l 1
 100 650 l 1
 100 600 l 1025
200 550 m 1
 300 550 l 1
 300 600 l 1
 200 600 l 1
 200 550 l 1025
200 500 m 1
 300 500 l 1
 300 550 l 1
 200 550 l 1
 200 500 l 1025
200 450 m 1
 300 450 l 1
 300 500 l 1
 200 500 l 1
 200 450 l 1025
200 400 m 1
 300 400 l 1
 300 450 l 1
 200 450 l 1
 200 400 l 1025
200 350 m 1
 300 350 l 1
 300 400 l 1
 200 400 l 1
 200 350 l 1025
200 300 m 1
 300 300 l 1
 300 350 l 1
 200 350 l 1
 200 300 l 1025
200 250 m 1
 300 250 l 1
 300 300 l 1
 200 300 l 1
 200 250 l 1025
200 200 m 1
 300 200 l 1
 300 250 l 1
 200 250 l 1
 200 200 l 1025
200 150 m 1
 300 150 l 1
 300 200 l 1
 200 200 l 1
 200 150 l 1025
200 100 m 1
 300 100 l 1
 300 150 l 1
 200 150 l 1
 200 100 l 1025
200 50 m 1
 300 50 l 1
 300 100 l 1
 200 100 l 1
 200 50 l 1025
50 0 m 1
 50 50 l 1
 450 50 l 1
 450 0 l 1
 50 0 l 1
EndSplineSet
EndChar

StartChar: m
Encoding: 109 109 78
Width: 500
Flags: HW
LayerCount: 2
Back
Fore
SplineSet
50 350 m 1
 100 350 l 1
 100 400 l 1
 50 400 l 1
 50 350 l 1025
150 350 m 1
 250 350 l 1
 250 400 l 1
 150 400 l 1
 150 350 l 1025
300 350 m 1
 400 350 l 1
 400 400 l 1
 300 400 l 1
 300 350 l 1025
50 300 m 1
 450 300 l 1
 450 350 l 1
 50 350 l 1
 50 300 l 1025
50 250 m 1
 150 250 l 1
 150 300 l 1
 50 300 l 1
 50 250 l 1025
200 250 m 1
 300 250 l 1
 300 300 l 1
 200 300 l 1
 200 250 l 1025
350 250 m 1
 450 250 l 1
 450 300 l 1
 350 300 l 1
 350 250 l 1025
50 200 m 1
 150 200 l 1
 150 250 l 1
 50 250 l 1
 50 200 l 1025
200 200 m 1
 300 200 l 1
 300 250 l 1
 200 250 l 1
 200 200 l 1025
350 200 m 1
 450 200 l 1
 450 250 l 1
 350 250 l 1
 350 200 l 1025
50 150 m 1
 150 150 l 1
 150 200 l 1
 50 200 l 1
 50 150 l 1025
200 150 m 1
 300 150 l 1
 300 200 l 1
 200 200 l 1
 200 150 l 1025
350 150 m 1
 450 150 l 1
 450 200 l 1
 350 200 l 1
 350 150 l 1025
50 100 m 1
 150 100 l 1
 150 150 l 1
 50 150 l 1
 50 100 l 1025
200 100 m 1
 300 100 l 1
 300 150 l 1
 200 150 l 1
 200 100 l 1025
350 100 m 1
 450 100 l 1
 450 150 l 1
 350 150 l 1
 350 100 l 1025
50 50 m 1
 150 50 l 1
 150 100 l 1
 50 100 l 1
 50 50 l 1025
200 50 m 1
 300 50 l 1
 300 100 l 1
 200 100 l 1
 200 50 l 1025
350 50 m 1
 450 50 l 1
 450 100 l 1
 350 100 l 1
 350 50 l 1025
50 0 m 1
 150 0 l 1
 150 50 l 1
 50 50 l 1
 50 0 l 1025
200 0 m 1
 300 0 l 1
 300 50 l 1
 200 50 l 1
 200 0 l 1025
350 0 m 1
 350 50 l 1
 450 50 l 1
 450 0 l 1
 350 0 l 1
EndSplineSet
EndChar

StartChar: n
Encoding: 110 110 79
Width: 500
Flags: HW
LayerCount: 2
Back
Fore
SplineSet
50 350 m 1
 150 350 l 1
 150 400 l 1
 50 400 l 1
 50 350 l 1025
200 350 m 1
 350 350 l 1
 350 400 l 1
 200 400 l 1
 200 350 l 1025
50 300 m 1
 200 300 l 1
 200 350 l 1
 50 350 l 1
 50 300 l 1025
300 300 m 1
 400 300 l 1
 400 350 l 1
 300 350 l 1
 300 300 l 1025
50 250 m 1
 150 250 l 1
 150 300 l 1
 50 300 l 1
 50 250 l 1025
350 250 m 1
 450 250 l 1
 450 300 l 1
 350 300 l 1
 350 250 l 1025
50 200 m 1
 150 200 l 1
 150 250 l 1
 50 250 l 1
 50 200 l 1025
350 200 m 1
 450 200 l 1
 450 250 l 1
 350 250 l 1
 350 200 l 1025
50 150 m 1
 150 150 l 1
 150 200 l 1
 50 200 l 1
 50 150 l 1025
350 150 m 1
 450 150 l 1
 450 200 l 1
 350 200 l 1
 350 150 l 1025
50 100 m 1
 150 100 l 1
 150 150 l 1
 50 150 l 1
 50 100 l 1025
350 100 m 1
 450 100 l 1
 450 150 l 1
 350 150 l 1
 350 100 l 1025
50 50 m 1
 150 50 l 1
 150 100 l 1
 50 100 l 1
 50 50 l 1025
350 50 m 1
 450 50 l 1
 450 100 l 1
 350 100 l 1
 350 50 l 1025
50 0 m 1
 150 0 l 1
 150 50 l 1
 50 50 l 1
 50 0 l 1025
350 0 m 1
 350 50 l 1
 450 50 l 1
 450 0 l 1
 350 0 l 1
EndSplineSet
EndChar

StartChar: o
Encoding: 111 111 80
Width: 500
Flags: HW
LayerCount: 2
Back
Fore
SplineSet
150 350 m 1
 350 350 l 1
 350 400 l 1
 150 400 l 1
 150 350 l 1025
100 300 m 1
 200 300 l 1
 200 350 l 1
 100 350 l 1
 100 300 l 1025
300 300 m 1
 400 300 l 1
 400 350 l 1
 300 350 l 1
 300 300 l 1025
50 250 m 1
 150 250 l 1
 150 300 l 1
 50 300 l 1
 50 250 l 1025
350 250 m 1
 450 250 l 1
 450 300 l 1
 350 300 l 1
 350 250 l 1025
50 200 m 1
 150 200 l 1
 150 250 l 1
 50 250 l 1
 50 200 l 1025
350 200 m 1
 450 200 l 1
 450 250 l 1
 350 250 l 1
 350 200 l 1025
50 150 m 1
 150 150 l 1
 150 200 l 1
 50 200 l 1
 50 150 l 1025
350 150 m 1
 450 150 l 1
 450 200 l 1
 350 200 l 1
 350 150 l 1025
50 100 m 1
 150 100 l 1
 150 150 l 1
 50 150 l 1
 50 100 l 1025
350 100 m 1
 450 100 l 1
 450 150 l 1
 350 150 l 1
 350 100 l 1025
100 50 m 1
 200 50 l 1
 200 100 l 1
 100 100 l 1
 100 50 l 1025
300 50 m 1
 400 50 l 1
 400 100 l 1
 300 100 l 1
 300 50 l 1025
150 0 m 1
 150 50 l 1
 350 50 l 1
 350 0 l 1
 150 0 l 1
EndSplineSet
EndChar

StartChar: p
Encoding: 112 112 81
Width: 500
Flags: HW
LayerCount: 2
Back
Fore
SplineSet
50 350 m 1
 150 350 l 1
 150 400 l 1
 50 400 l 1
 50 350 l 1025
200 350 m 1
 350 350 l 1
 350 400 l 1
 200 400 l 1
 200 350 l 1025
50 300 m 1
 200 300 l 1
 200 350 l 1
 50 350 l 1
 50 300 l 1025
300 300 m 1
 400 300 l 1
 400 350 l 1
 300 350 l 1
 300 300 l 1025
50 250 m 1
 150 250 l 1
 150 300 l 1
 50 300 l 1
 50 250 l 1025
350 250 m 1
 450 250 l 1
 450 300 l 1
 350 300 l 1
 350 250 l 1025
50 200 m 1
 150 200 l 1
 150 250 l 1
 50 250 l 1
 50 200 l 1025
350 200 m 1
 450 200 l 1
 450 250 l 1
 350 250 l 1
 350 200 l 1025
50 150 m 1
 150 150 l 1
 150 200 l 1
 50 200 l 1
 50 150 l 1025
350 150 m 1
 450 150 l 1
 450 200 l 1
 350 200 l 1
 350 150 l 1025
50 100 m 1
 150 100 l 1
 150 150 l 1
 50 150 l 1
 50 100 l 1025
350 100 m 1
 450 100 l 1
 450 150 l 1
 350 150 l 1
 350 100 l 1025
50 50 m 1
 200 50 l 1
 200 100 l 1
 50 100 l 1
 50 50 l 1025
300 50 m 1
 400 50 l 1
 400 100 l 1
 300 100 l 1
 300 50 l 1025
50 0 m 1
 150 0 l 1
 150 50 l 1
 50 50 l 1
 50 0 l 1025
200 0 m 1
 350 0 l 1
 350 50 l 1
 200 50 l 1
 200 0 l 1025
50 -50 m 1
 150 -50 l 1
 150 0 l 1
 50 0 l 1
 50 -50 l 1025
50 -100 m 1
 150 -100 l 1
 150 -50 l 1
 50 -50 l 1
 50 -100 l 1025
50 -150 m 1
 150 -150 l 1
 150 -100 l 1
 50 -100 l 1
 50 -150 l 1025
50 -200 m 1
 50 -150 l 1
 150 -150 l 1
 150 -200 l 1
 50 -200 l 1
EndSplineSet
EndChar

StartChar: q
Encoding: 113 113 82
Width: 500
Flags: HW
LayerCount: 2
Back
Fore
SplineSet
150 350 m 1
 300 350 l 1
 300 400 l 1
 150 400 l 1
 150 350 l 1025
350 350 m 1
 450 350 l 1
 450 400 l 1
 350 400 l 1
 350 350 l 1025
100 300 m 1
 200 300 l 1
 200 350 l 1
 100 350 l 1
 100 300 l 1025
300 300 m 1
 450 300 l 1
 450 350 l 1
 300 350 l 1
 300 300 l 1025
50 250 m 1
 150 250 l 1
 150 300 l 1
 50 300 l 1
 50 250 l 1025
350 250 m 1
 450 250 l 1
 450 300 l 1
 350 300 l 1
 350 250 l 1025
50 200 m 1
 150 200 l 1
 150 250 l 1
 50 250 l 1
 50 200 l 1025
350 200 m 1
 450 200 l 1
 450 250 l 1
 350 250 l 1
 350 200 l 1025
50 150 m 1
 150 150 l 1
 150 200 l 1
 50 200 l 1
 50 150 l 1025
350 150 m 1
 450 150 l 1
 450 200 l 1
 350 200 l 1
 350 150 l 1025
50 100 m 1
 150 100 l 1
 150 150 l 1
 50 150 l 1
 50 100 l 1025
350 100 m 1
 450 100 l 1
 450 150 l 1
 350 150 l 1
 350 100 l 1025
100 50 m 1
 200 50 l 1
 200 100 l 1
 100 100 l 1
 100 50 l 1025
300 50 m 1
 450 50 l 1
 450 100 l 1
 300 100 l 1
 300 50 l 1025
150 0 m 1
 300 0 l 1
 300 50 l 1
 150 50 l 1
 150 0 l 1025
350 0 m 1
 450 0 l 1
 450 50 l 1
 350 50 l 1
 350 0 l 1025
350 -50 m 1
 450 -50 l 1
 450 0 l 1
 350 0 l 1
 350 -50 l 1025
350 -100 m 1
 450 -100 l 1
 450 -50 l 1
 350 -50 l 1
 350 -100 l 1025
350 -150 m 1
 450 -150 l 1
 450 -100 l 1
 350 -100 l 1
 350 -150 l 1025
350 -200 m 1
 350 -150 l 1
 450 -150 l 1
 450 -200 l 1
 350 -200 l 1
EndSplineSet
EndChar

StartChar: r
Encoding: 114 114 83
Width: 500
Flags: HW
LayerCount: 2
Back
Fore
SplineSet
50 350 m 1
 150 350 l 1
 150 400 l 1
 50 400 l 1
 50 350 l 1025
200 350 m 1
 400 350 l 1
 400 400 l 1
 200 400 l 1
 200 350 l 1025
100 300 m 1
 250 300 l 1
 250 350 l 1
 100 350 l 1
 100 300 l 1025
350 300 m 1
 450 300 l 1
 450 350 l 1
 350 350 l 1
 350 300 l 1025
100 250 m 1
 200 250 l 1
 200 300 l 1
 100 300 l 1
 100 250 l 1025
100 200 m 1
 200 200 l 1
 200 250 l 1
 100 250 l 1
 100 200 l 1025
100 150 m 1
 200 150 l 1
 200 200 l 1
 100 200 l 1
 100 150 l 1025
100 100 m 1
 200 100 l 1
 200 150 l 1
 100 150 l 1
 100 100 l 1025
100 50 m 1
 200 50 l 1
 200 100 l 1
 100 100 l 1
 100 50 l 1025
100 0 m 1
 100 50 l 1
 200 50 l 1
 200 0 l 1
 100 0 l 1
EndSplineSet
EndChar

StartChar: s
Encoding: 115 115 84
Width: 500
Flags: HW
LayerCount: 2
Back
Fore
SplineSet
100 350 m 1
 400 350 l 1
 400 400 l 1
 100 400 l 1
 100 350 l 1025
50 300 m 1
 150 300 l 1
 150 350 l 1
 50 350 l 1
 50 300 l 1025
350 300 m 1
 450 300 l 1
 450 350 l 1
 350 350 l 1
 350 300 l 1025
50 250 m 1
 150 250 l 1
 150 300 l 1
 50 300 l 1
 50 250 l 1025
100 200 m 1
 400 200 l 1
 400 250 l 1
 100 250 l 1
 100 200 l 1025
350 150 m 1
 450 150 l 1
 450 200 l 1
 350 200 l 1
 350 150 l 1025
350 100 m 1
 450 100 l 1
 450 150 l 1
 350 150 l 1
 350 100 l 1025
50 50 m 1
 150 50 l 1
 150 100 l 1
 50 100 l 1
 50 50 l 1025
350 50 m 1
 450 50 l 1
 450 100 l 1
 350 100 l 1
 350 50 l 1025
100 0 m 1
 100 50 l 1
 400 50 l 1
 400 0 l 1
 100 0 l 1
EndSplineSet
EndChar

StartChar: t
Encoding: 116 116 85
Width: 500
Flags: HW
LayerCount: 2
Back
Fore
SplineSet
150 500 m 1
 250 500 l 1
 250 550 l 1
 150 550 l 1
 150 500 l 1025
150 450 m 1
 250 450 l 1
 250 500 l 1
 150 500 l 1
 150 450 l 1025
150 400 m 1
 250 400 l 1
 250 450 l 1
 150 450 l 1
 150 400 l 1025
50 350 m 1
 350 350 l 1
 350 400 l 1
 50 400 l 1
 50 350 l 1025
150 300 m 1
 250 300 l 1
 250 350 l 1
 150 350 l 1
 150 300 l 1025
150 250 m 1
 250 250 l 1
 250 300 l 1
 150 300 l 1
 150 250 l 1025
150 200 m 1
 250 200 l 1
 250 250 l 1
 150 250 l 1
 150 200 l 1025
150 150 m 1
 250 150 l 1
 250 200 l 1
 150 200 l 1
 150 150 l 1025
150 100 m 1
 250 100 l 1
 250 150 l 1
 150 150 l 1
 150 100 l 1025
150 50 m 1
 250 50 l 1
 250 100 l 1
 150 100 l 1
 150 50 l 1025
350 50 m 1
 450 50 l 1
 450 100 l 1
 350 100 l 1
 350 50 l 1025
200 0 m 1
 200 50 l 1
 400 50 l 1
 400 0 l 1
 200 0 l 1
EndSplineSet
EndChar

StartChar: u
Encoding: 117 117 86
Width: 500
Flags: HW
LayerCount: 2
Back
Fore
SplineSet
50 350 m 1
 150 350 l 1
 150 400 l 1
 50 400 l 1
 50 350 l 1025
350 350 m 1
 450 350 l 1
 450 400 l 1
 350 400 l 1
 350 350 l 1025
50 300 m 1
 150 300 l 1
 150 350 l 1
 50 350 l 1
 50 300 l 1025
350 300 m 1
 450 300 l 1
 450 350 l 1
 350 350 l 1
 350 300 l 1025
50 250 m 1
 150 250 l 1
 150 300 l 1
 50 300 l 1
 50 250 l 1025
350 250 m 1
 450 250 l 1
 450 300 l 1
 350 300 l 1
 350 250 l 1025
50 200 m 1
 150 200 l 1
 150 250 l 1
 50 250 l 1
 50 200 l 1025
350 200 m 1
 450 200 l 1
 450 250 l 1
 350 250 l 1
 350 200 l 1025
50 150 m 1
 150 150 l 1
 150 200 l 1
 50 200 l 1
 50 150 l 1025
350 150 m 1
 450 150 l 1
 450 200 l 1
 350 200 l 1
 350 150 l 1025
50 100 m 1
 150 100 l 1
 150 150 l 1
 50 150 l 1
 50 100 l 1025
350 100 m 1
 450 100 l 1
 450 150 l 1
 350 150 l 1
 350 100 l 1025
100 50 m 1
 200 50 l 1
 200 100 l 1
 100 100 l 1
 100 50 l 1025
300 50 m 1
 450 50 l 1
 450 100 l 1
 300 100 l 1
 300 50 l 1025
150 0 m 1
 300 0 l 1
 300 50 l 1
 150 50 l 1
 150 0 l 1025
350 0 m 1
 350 50 l 1
 450 50 l 1
 450 0 l 1
 350 0 l 1
EndSplineSet
EndChar

StartChar: v
Encoding: 118 118 87
Width: 500
Flags: HW
LayerCount: 2
Back
Fore
SplineSet
50 350 m 1
 150 350 l 1
 150 400 l 1
 50 400 l 1
 50 350 l 1025
350 350 m 1
 450 350 l 1
 450 400 l 1
 350 400 l 1
 350 350 l 1025
50 300 m 1
 150 300 l 1
 150 350 l 1
 50 350 l 1
 50 300 l 1025
350 300 m 1
 450 300 l 1
 450 350 l 1
 350 350 l 1
 350 300 l 1025
100 250 m 1
 200 250 l 1
 200 300 l 1
 100 300 l 1
 100 250 l 1025
300 250 m 1
 400 250 l 1
 400 300 l 1
 300 300 l 1
 300 250 l 1025
100 200 m 1
 200 200 l 1
 200 250 l 1
 100 250 l 1
 100 200 l 1025
300 200 m 1
 400 200 l 1
 400 250 l 1
 300 250 l 1
 300 200 l 1025
150 150 m 1
 350 150 l 1
 350 200 l 1
 150 200 l 1
 150 150 l 1025
150 100 m 1
 350 100 l 1
 350 150 l 1
 150 150 l 1
 150 100 l 1025
200 50 m 1
 300 50 l 1
 300 100 l 1
 200 100 l 1
 200 50 l 1025
200 0 m 1
 200 50 l 1
 300 50 l 1
 300 0 l 1
 200 0 l 1
EndSplineSet
EndChar

StartChar: w
Encoding: 119 119 88
Width: 500
Flags: HW
LayerCount: 2
Back
Fore
SplineSet
50 350 m 1
 150 350 l 1
 150 400 l 1
 50 400 l 1
 50 350 l 1025
350 350 m 1
 450 350 l 1
 450 400 l 1
 350 400 l 1
 350 350 l 1025
50 300 m 1
 150 300 l 1
 150 350 l 1
 50 350 l 1
 50 300 l 1025
350 300 m 1
 450 300 l 1
 450 350 l 1
 350 350 l 1
 350 300 l 1025
50 250 m 1
 150 250 l 1
 150 300 l 1
 50 300 l 1
 50 250 l 1025
350 250 m 1
 450 250 l 1
 450 300 l 1
 350 300 l 1
 350 250 l 1025
50 200 m 1
 150 200 l 1
 150 250 l 1
 50 250 l 1
 50 200 l 1025
200 200 m 1
 300 200 l 1
 300 250 l 1
 200 250 l 1
 200 200 l 1025
350 200 m 1
 450 200 l 1
 450 250 l 1
 350 250 l 1
 350 200 l 1025
50 150 m 1
 150 150 l 1
 150 200 l 1
 50 200 l 1
 50 150 l 1025
200 150 m 1
 300 150 l 1
 300 200 l 1
 200 200 l 1
 200 150 l 1025
350 150 m 1
 450 150 l 1
 450 200 l 1
 350 200 l 1
 350 150 l 1025
50 100 m 1
 150 100 l 1
 150 150 l 1
 50 150 l 1
 50 100 l 1025
200 100 m 1
 300 100 l 1
 300 150 l 1
 200 150 l 1
 200 100 l 1025
350 100 m 1
 450 100 l 1
 450 150 l 1
 350 150 l 1
 350 100 l 1025
50 50 m 1
 450 50 l 1
 450 100 l 1
 50 100 l 1
 50 50 l 1025
100 0 m 1
 200 0 l 1
 200 50 l 1
 100 50 l 1
 100 0 l 1025
300 0 m 1
 300 50 l 1
 400 50 l 1
 400 0 l 1
 300 0 l 1
EndSplineSet
EndChar

StartChar: x
Encoding: 120 120 89
Width: 500
Flags: HW
LayerCount: 2
Back
Fore
SplineSet
50 350 m 1
 150 350 l 1
 150 400 l 1
 50 400 l 1
 50 350 l 1025
350 350 m 1
 450 350 l 1
 450 400 l 1
 350 400 l 1
 350 350 l 1025
100 300 m 1
 200 300 l 1
 200 350 l 1
 100 350 l 1
 100 300 l 1025
300 300 m 1
 400 300 l 1
 400 350 l 1
 300 350 l 1
 300 300 l 1025
150 250 m 1
 350 250 l 1
 350 300 l 1
 150 300 l 1
 150 250 l 1025
200 200 m 1
 300 200 l 1
 300 250 l 1
 200 250 l 1
 200 200 l 1025
200 150 m 1
 300 150 l 1
 300 200 l 1
 200 200 l 1
 200 150 l 1025
150 100 m 1
 350 100 l 1
 350 150 l 1
 150 150 l 1
 150 100 l 1025
100 50 m 1
 200 50 l 1
 200 100 l 1
 100 100 l 1
 100 50 l 1025
300 50 m 1
 400 50 l 1
 400 100 l 1
 300 100 l 1
 300 50 l 1025
50 0 m 1
 150 0 l 1
 150 50 l 1
 50 50 l 1
 50 0 l 1025
350 0 m 1
 350 50 l 1
 450 50 l 1
 450 0 l 1
 350 0 l 1
EndSplineSet
EndChar

StartChar: y
Encoding: 121 121 90
Width: 500
Flags: HW
LayerCount: 2
Back
Fore
SplineSet
50 350 m 1
 150 350 l 1
 150 400 l 1
 50 400 l 1
 50 350 l 1025
350 350 m 1
 450 350 l 1
 450 400 l 1
 350 400 l 1
 350 350 l 1025
50 300 m 1
 150 300 l 1
 150 350 l 1
 50 350 l 1
 50 300 l 1025
350 300 m 1
 450 300 l 1
 450 350 l 1
 350 350 l 1
 350 300 l 1025
50 250 m 1
 150 250 l 1
 150 300 l 1
 50 300 l 1
 50 250 l 1025
350 250 m 1
 450 250 l 1
 450 300 l 1
 350 300 l 1
 350 250 l 1025
50 200 m 1
 150 200 l 1
 150 250 l 1
 50 250 l 1
 50 200 l 1025
350 200 m 1
 450 200 l 1
 450 250 l 1
 350 250 l 1
 350 200 l 1025
50 150 m 1
 150 150 l 1
 150 200 l 1
 50 200 l 1
 50 150 l 1025
350 150 m 1
 450 150 l 1
 450 200 l 1
 350 200 l 1
 350 150 l 1025
50 100 m 1
 150 100 l 1
 150 150 l 1
 50 150 l 1
 50 100 l 1025
350 100 m 1
 450 100 l 1
 450 150 l 1
 350 150 l 1
 350 100 l 1025
100 50 m 1
 200 50 l 1
 200 100 l 1
 100 100 l 1
 100 50 l 1025
300 50 m 1
 450 50 l 1
 450 100 l 1
 300 100 l 1
 300 50 l 1025
150 0 m 1
 300 0 l 1
 300 50 l 1
 150 50 l 1
 150 0 l 1025
350 0 m 1
 450 0 l 1
 450 50 l 1
 350 50 l 1
 350 0 l 1025
350 -50 m 1
 450 -50 l 1
 450 0 l 1
 350 0 l 1
 350 -50 l 1025
50 -100 m 1
 150 -100 l 1
 150 -50 l 1
 50 -50 l 1
 50 -100 l 1025
350 -100 m 1
 450 -100 l 1
 450 -50 l 1
 350 -50 l 1
 350 -100 l 1025
100 -150 m 1
 200 -150 l 1
 200 -100 l 1
 100 -100 l 1
 100 -150 l 1025
300 -150 m 1
 400 -150 l 1
 400 -100 l 1
 300 -100 l 1
 300 -150 l 1025
150 -200 m 1
 150 -150 l 1
 350 -150 l 1
 350 -200 l 1
 150 -200 l 1
EndSplineSet
EndChar

StartChar: z
Encoding: 122 122 91
Width: 500
Flags: HW
LayerCount: 2
Back
Fore
SplineSet
100 350 m 1
 450 350 l 1
 450 400 l 1
 100 400 l 1
 100 350 l 1025
350 300 m 1
 450 300 l 1
 450 350 l 1
 350 350 l 1
 350 300 l 1025
300 250 m 1
 400 250 l 1
 400 300 l 1
 300 300 l 1
 300 250 l 1025
250 200 m 1
 350 200 l 1
 350 250 l 1
 250 250 l 1
 250 200 l 1025
200 150 m 1
 300 150 l 1
 300 200 l 1
 200 200 l 1
 200 150 l 1025
150 100 m 1
 250 100 l 1
 250 150 l 1
 150 150 l 1
 150 100 l 1025
100 50 m 1
 200 50 l 1
 200 100 l 1
 100 100 l 1
 100 50 l 1025
100 0 m 1
 100 50 l 1
 450 50 l 1
 450 0 l 1
 100 0 l 1
EndSplineSet
EndChar

StartChar: braceleft
Encoding: 123 123 92
Width: 500
Flags: HW
LayerCount: 2
Back
Fore
SplineSet
250 600 m 1
 450 600 l 1
 450 650 l 1
 250 650 l 1
 250 600 l 1025
200 550 m 1
 300 550 l 1
 300 600 l 1
 200 600 l 1
 200 550 l 1025
200 500 m 1
 300 500 l 1
 300 550 l 1
 200 550 l 1
 200 500 l 1025
200 450 m 1
 300 450 l 1
 300 500 l 1
 200 500 l 1
 200 450 l 1025
200 400 m 1
 300 400 l 1
 300 450 l 1
 200 450 l 1
 200 400 l 1025
200 350 m 1
 300 350 l 1
 300 400 l 1
 200 400 l 1
 200 350 l 1025
50 300 m 1
 250 300 l 1
 250 350 l 1
 50 350 l 1
 50 300 l 1025
200 250 m 1
 300 250 l 1
 300 300 l 1
 200 300 l 1
 200 250 l 1025
200 200 m 1
 300 200 l 1
 300 250 l 1
 200 250 l 1
 200 200 l 1025
200 150 m 1
 300 150 l 1
 300 200 l 1
 200 200 l 1
 200 150 l 1025
200 100 m 1
 300 100 l 1
 300 150 l 1
 200 150 l 1
 200 100 l 1025
200 50 m 1
 300 50 l 1
 300 100 l 1
 200 100 l 1
 200 50 l 1025
250 0 m 1
 250 50 l 1
 450 50 l 1
 450 0 l 1
 250 0 l 1
EndSplineSet
EndChar

StartChar: bar
Encoding: 124 124 93
Width: 500
Flags: HW
LayerCount: 2
Back
Fore
SplineSet
200 600 m 1
 300 600 l 1
 300 650 l 1
 200 650 l 1
 200 600 l 1025
200 550 m 1
 300 550 l 1
 300 600 l 1
 200 600 l 1
 200 550 l 1025
200 500 m 1
 300 500 l 1
 300 550 l 1
 200 550 l 1
 200 500 l 1025
200 450 m 1
 300 450 l 1
 300 500 l 1
 200 500 l 1
 200 450 l 1025
200 400 m 1
 300 400 l 1
 300 450 l 1
 200 450 l 1
 200 400 l 1025
200 350 m 1
 300 350 l 1
 300 400 l 1
 200 400 l 1
 200 350 l 1025
200 300 m 1
 300 300 l 1
 300 350 l 1
 200 350 l 1
 200 300 l 1025
200 250 m 1
 300 250 l 1
 300 300 l 1
 200 300 l 1
 200 250 l 1025
200 200 m 1
 300 200 l 1
 300 250 l 1
 200 250 l 1
 200 200 l 1025
200 150 m 1
 300 150 l 1
 300 200 l 1
 200 200 l 1
 200 150 l 1025
200 100 m 1
 300 100 l 1
 300 150 l 1
 200 150 l 1
 200 100 l 1025
200 50 m 1
 300 50 l 1
 300 100 l 1
 200 100 l 1
 200 50 l 1025
200 0 m 1
 200 50 l 1
 300 50 l 1
 300 0 l 1
 200 0 l 1
EndSplineSet
EndChar

StartChar: braceright
Encoding: 125 125 94
Width: 500
Flags: HW
LayerCount: 2
Back
Fore
SplineSet
50 600 m 1
 250 600 l 1
 250 650 l 1
 50 650 l 1
 50 600 l 1025
200 550 m 1
 300 550 l 1
 300 600 l 1
 200 600 l 1
 200 550 l 1025
200 500 m 1
 300 500 l 1
 300 550 l 1
 200 550 l 1
 200 500 l 1025
200 450 m 1
 300 450 l 1
 300 500 l 1
 200 500 l 1
 200 450 l 1025
200 400 m 1
 300 400 l 1
 300 450 l 1
 200 450 l 1
 200 400 l 1025
200 350 m 1
 300 350 l 1
 300 400 l 1
 200 400 l 1
 200 350 l 1025
250 300 m 1
 450 300 l 1
 450 350 l 1
 250 350 l 1
 250 300 l 1025
200 250 m 1
 300 250 l 1
 300 300 l 1
 200 300 l 1
 200 250 l 1025
200 200 m 1
 300 200 l 1
 300 250 l 1
 200 250 l 1
 200 200 l 1025
200 150 m 1
 300 150 l 1
 300 200 l 1
 200 200 l 1
 200 150 l 1025
200 100 m 1
 300 100 l 1
 300 150 l 1
 200 150 l 1
 200 100 l 1025
200 50 m 1
 300 50 l 1
 300 100 l 1
 200 100 l 1
 200 50 l 1025
50 0 m 1
 50 50 l 1
 250 50 l 1
 250 0 l 1
 50 0 l 1
EndSplineSet
EndChar

StartChar: asciitilde
Encoding: 126 126 95
Width: 500
Flags: HW
LayerCount: 2
Back
Fore
SplineSet
100 600 m 1
 250 600 l 1
 250 650 l 1
 100 650 l 1
 100 600 l 1025
350 600 m 1
 450 600 l 1
 450 650 l 1
 350 650 l 1
 350 600 l 1025
50 550 m 1
 150 550 l 1
 150 600 l 1
 50 600 l 1
 50 550 l 1025
200 550 m 1
 300 550 l 1
 300 600 l 1
 200 600 l 1
 200 550 l 1025
350 550 m 1
 450 550 l 1
 450 600 l 1
 350 600 l 1
 350 550 l 1025
50 500 m 1
 150 500 l 1
 150 550 l 1
 50 550 l 1
 50 500 l 1025
250 500 m 1
 250 550 l 1
 400 550 l 1
 400 500 l 1
 250 500 l 1
EndSplineSet
EndChar

StartChar: hyphen
Encoding: 45 45 109
Width: 500
Flags: HW
LayerCount: 2
Back
Fore
SplineSet
100 300 m 1
 100 350 l 1
 400 350 l 1
 400 300 l 1
 100 300 l 1
EndSplineSet
EndChar

